<svg width="80" height="48" viewBox="0 0 80 48" fill="none" xmlns="http://www.w3.org/2000/svg">
<path d="M35.3333 14.0011C35.3333 13.8243 35.4035 13.6547 35.5285 13.5297C35.6535 13.4047 35.8231 13.3344 35.9999 13.3344H39.3333V10.0011C39.3333 9.82429 39.4035 9.65472 39.5285 9.52969C39.6535 9.40467 39.8231 9.33443 39.9999 9.33443C40.1767 9.33443 40.3463 9.40467 40.4713 9.52969C40.5964 9.65472 40.6666 9.82429 40.6666 10.0011V13.3344H43.9999C44.1767 13.3344 44.3463 13.4047 44.4713 13.5297C44.5964 13.6547 44.6666 13.8243 44.6666 14.0011C44.6666 14.1779 44.5964 14.3475 44.4713 14.4725C44.3463 14.5975 44.1767 14.6678 43.9999 14.6678H40.6666V18.0011C40.6666 18.1779 40.5964 18.3475 40.4713 18.4725C40.3463 18.5975 40.1767 18.6678 39.9999 18.6678C39.8231 18.6678 39.6535 18.5975 39.5285 18.4725C39.4035 18.3475 39.3333 18.1779 39.3333 18.0011V14.6678H35.9999C35.8231 14.6678 35.6535 14.5975 35.5285 14.4725C35.4035 14.3475 35.3333 14.1779 35.3333 14.0011ZM46.5999 21.2744C48.3505 19.523 49.3338 17.148 49.3338 14.6718C49.3338 12.1955 48.3505 9.82055 46.5999 8.0691C45.7334 7.202 44.7045 6.51414 43.5721 6.04484C42.4396 5.57554 41.2258 5.33398 39.9999 5.33398C38.7741 5.33398 37.5602 5.57554 36.4278 6.04484C35.2953 6.51414 34.2664 7.202 33.3999 8.0691C31.6494 9.82055 30.666 12.1955 30.666 14.6718C30.666 17.148 31.6494 19.523 33.3999 21.2744L35.4279 23.2731L38.1519 25.9198L38.3293 26.0771C39.3626 26.9144 40.8759 26.8611 41.8493 25.9198L45.0959 22.7598L46.5999 21.2744ZM34.3399 9.0091C35.0831 8.2656 35.9655 7.67581 36.9366 7.27342C37.9078 6.87102 38.9487 6.66391 39.9999 6.66391C41.0512 6.66391 42.0921 6.87102 43.0632 7.27342C44.0344 7.67581 44.9168 8.2656 45.6599 9.0091C47.1195 10.4697 47.9588 12.4375 48.0025 14.502C48.0462 16.5664 47.2911 18.568 45.8946 20.0891L45.6599 20.3344L43.8986 22.0731L40.9253 24.9651L40.7999 25.0718C40.5693 25.2453 40.2884 25.339 39.9997 25.3388C39.7111 25.3385 39.4303 25.2443 39.1999 25.0704L39.0759 24.9638L35.1026 21.0904L34.3399 20.3344L34.1053 20.0904C32.7088 18.5693 31.9536 16.5677 31.9974 14.5033C32.0411 12.4389 32.8803 10.4697 34.3399 9.0091Z" fill="#ACACAC"/>
<path d="M33.0977 36.5117C33.0977 37.6602 33.8359 38.8203 35.1953 39.3359L34.6094 40.1914C33.6309 39.8164 32.9453 39.1016 32.5703 38.2344C32.1836 39.2129 31.4629 40.0625 30.4492 40.4961L29.8398 39.6289C31.2578 39.0078 32.0195 37.6836 32.0195 36.5117V35.1523H33.0977V36.5117ZM38.8398 34.5078V40.9648H37.7852V38.1523H36.5547V40.6367H35.5234V34.6953H36.5547V37.2383H37.7852V34.5078H38.8398ZM35.3242 41.1641C37.5156 41.1641 38.8867 41.8789 38.8984 43.0742C38.8867 44.2695 37.5156 44.9844 35.3242 44.9727C33.1328 44.9844 31.7617 44.2695 31.7734 43.0742C31.7617 41.8789 33.1328 41.1641 35.3242 41.1641ZM35.3242 42.0195C33.8008 42.0195 32.8633 42.4062 32.875 43.0742C32.8633 43.7422 33.8008 44.1289 35.3242 44.1172C36.8477 44.1289 37.7734 43.7422 37.7852 43.0742C37.7734 42.4062 36.8477 42.0195 35.3242 42.0195ZM43.6644 36.0664C43.6644 37.543 44.6136 38.8555 46.2073 39.3711L45.598 40.2383C44.4437 39.8223 43.5941 39.0137 43.137 37.9648C42.68 39.166 41.7659 40.0977 40.5003 40.5547L39.9027 39.6641C41.5784 39.0898 42.5511 37.6953 42.5628 36.1133V35.082H43.6644V36.0664ZM48.6917 34.4961V40.6953H47.5784V37.543H45.3636V36.6289H47.5784V34.4961H48.6917ZM45.1761 40.9883C47.3792 40.9883 48.7269 41.7148 48.7269 42.9922C48.7269 44.2578 47.3792 44.9844 45.1761 44.9727C42.973 44.9844 41.6136 44.2578 41.6253 42.9922C41.6136 41.7148 42.973 40.9883 45.1761 40.9883ZM45.1761 41.8555C43.6409 41.8555 42.7269 42.2656 42.7269 42.9922C42.7269 43.6953 43.6409 44.0938 45.1761 44.0938C46.7113 44.0938 47.6253 43.6953 47.6253 42.9922C47.6253 42.2656 46.7113 41.8555 45.1761 41.8555Z" fill="#ACACAC"/>
</svg>
