<svg width="24" height="24" viewBox="0 0 24 24" fill="none" xmlns="http://www.w3.org/2000/svg">
<path d="M8.79544 12.0058L17.2874 3.27877C17.3574 3.20844 17.4126 3.12494 17.4501 3.03311C17.4875 2.94128 17.5063 2.84293 17.5055 2.74377C17.5047 2.6446 17.4842 2.54659 17.4453 2.45539C17.4063 2.36419 17.3497 2.28163 17.2786 2.21247C17.2075 2.14331 17.1234 2.08894 17.0312 2.05249C16.939 2.01604 16.8404 1.99825 16.7413 2.00014C16.6421 2.00202 16.5443 2.02356 16.4536 2.06349C16.3628 2.10342 16.2808 2.16095 16.2124 2.23277L7.21244 11.4828C7.07622 11.6228 7 11.8104 7 12.0058C7 12.2011 7.07622 12.3888 7.21244 12.5288L16.2124 21.7788C16.2808 21.8506 16.3628 21.9081 16.4536 21.948C16.5443 21.988 16.6421 22.0095 16.7413 22.0114C16.8404 22.0133 16.939 21.9955 17.0312 21.959C17.1234 21.9226 17.2075 21.8682 17.2786 21.7991C17.3497 21.7299 17.4063 21.6473 17.4453 21.5561C17.4842 21.4649 17.5047 21.3669 17.5055 21.2678C17.5063 21.1686 17.4875 21.0703 17.4501 20.9784C17.4126 20.8866 17.3574 20.8031 17.2874 20.7328L8.79544 12.0058Z" fill="#626262"/>
</svg>
