<svg width="32" height="32" viewBox="0 0 32 32" fill="none" xmlns="http://www.w3.org/2000/svg">
<path fill-rule="evenodd" clip-rule="evenodd" d="M15.9997 4.66659C13.5027 4.66659 11.0398 4.81105 8.61877 5.09202C7.504 5.22139 6.66634 6.18684 6.66634 7.34257V26.9212L15.7015 22.4036C15.8892 22.3098 16.1101 22.3098 16.2978 22.4036L25.333 26.9212V7.34257C25.333 6.18683 24.4953 5.22139 23.3806 5.09202C20.9595 4.81105 18.4966 4.66659 15.9997 4.66659ZM8.46506 3.76758C10.937 3.4807 13.4513 3.33325 15.9997 3.33325C18.5481 3.33325 21.0623 3.4807 23.5343 3.76758C25.3545 3.97881 26.6663 5.54367 26.6663 7.34257V27.9999C26.6663 28.231 26.5467 28.4455 26.3502 28.567C26.1536 28.6885 25.9082 28.6995 25.7015 28.5962L15.9997 23.7453L6.29782 28.5962C6.09116 28.6995 5.84573 28.6885 5.64919 28.567C5.45264 28.4455 5.33301 28.231 5.33301 27.9999V7.34257C5.33301 5.54367 6.6449 3.97881 8.46506 3.76758Z" fill="#ACACAC"/>
</svg>
