<svg width="14" height="14" viewBox="0 0 14 14" fill="none" xmlns="http://www.w3.org/2000/svg">
<path fill-rule="evenodd" clip-rule="evenodd" d="M4.66667 0.729156C4.90829 0.729156 5.10417 0.925032 5.10417 1.16666V1.89582H8.89583V1.16666C8.89583 0.925032 9.09171 0.729156 9.33333 0.729156C9.57496 0.729156 9.77083 0.925032 9.77083 1.16666V1.89582H11.0833C11.9693 1.89582 12.6875 2.61403 12.6875 3.49999V5.83332V11.6667C12.6875 12.5526 11.9693 13.2708 11.0833 13.2708H2.91667C2.03071 13.2708 1.3125 12.5526 1.3125 11.6667V5.83332V3.49999C1.3125 2.61403 2.03071 1.89582 2.91667 1.89582H4.22917V1.16666C4.22917 0.925032 4.42504 0.729156 4.66667 0.729156ZM2.1875 6.27082V11.6667C2.1875 12.0694 2.51396 12.3958 2.91667 12.3958H11.0833C11.486 12.3958 11.8125 12.0694 11.8125 11.6667V6.27082H2.1875ZM11.8125 5.39582H2.1875V3.49999C2.1875 3.09728 2.51396 2.77082 2.91667 2.77082H4.22917V3.49999C4.22917 3.74161 4.42504 3.93749 4.66667 3.93749C4.90829 3.93749 5.10417 3.74161 5.10417 3.49999V2.77082H8.89583V3.49999C8.89583 3.74161 9.09171 3.93749 9.33333 3.93749C9.57496 3.93749 9.77083 3.74161 9.77083 3.49999V2.77082H11.0833C11.486 2.77082 11.8125 3.09728 11.8125 3.49999V5.39582Z" fill="#939393"/>
</svg>
