<svg width="6" height="6" viewBox="0 0 6 6" fill="none" xmlns="http://www.w3.org/2000/svg">
<path fill-rule="evenodd" clip-rule="evenodd" d="M0.0941443 0.0941443C0.21967 -0.0313814 0.423187 -0.0313814 0.548713 0.0941443L3 2.54543L5.45129 0.0941443C5.57681 -0.0313814 5.78033 -0.0313814 5.90586 0.0941443C6.03138 0.21967 6.03138 0.423187 5.90586 0.548713L3.45457 3L5.90586 5.45129C6.03138 5.57681 6.03138 5.78033 5.90586 5.90586C5.78033 6.03138 5.57681 6.03138 5.45129 5.90586L3 3.45457L0.548713 5.90586C0.423187 6.03138 0.21967 6.03138 0.0941443 5.90586C-0.0313814 5.78033 -0.0313814 5.57681 0.0941443 5.45129L2.54543 3L0.0941443 0.548713C-0.0313814 0.423187 -0.0313814 0.21967 0.0941443 0.0941443Z" fill="#939393"/>
</svg>
