<svg width="14" height="12" viewBox="0 0 14 12" fill="none" xmlns="http://www.w3.org/2000/svg">
<path d="M7.66665 8.66667H6.33331C5.96665 8.66667 5.66665 8.36667 5.66665 8H1.00665V10.6667C1.00665 11.4 1.60665 12 2.33998 12H11.6666C12.4 12 13 11.4 13 10.6667V8H8.33331C8.33331 8.36667 8.03331 8.66667 7.66665 8.66667ZM12.3333 2.66667H9.66665C9.66665 1.19333 8.47331 0 6.99998 0C5.52665 0 4.33331 1.19333 4.33331 2.66667H1.66665C0.933313 2.66667 0.333313 3.26667 0.333313 4V6C0.333313 6.74 0.926646 7.33333 1.66665 7.33333H5.66665V6.66667C5.66665 6.3 5.96665 6 6.33331 6H7.66665C8.03331 6 8.33331 6.3 8.33331 6.66667V7.33333H12.3333C13.0666 7.33333 13.6666 6.73333 13.6666 6V4C13.6666 3.26667 13.0666 2.66667 12.3333 2.66667ZM5.66665 2.66667C5.66665 1.93333 6.26665 1.33333 6.99998 1.33333C7.73331 1.33333 8.33331 1.93333 8.33331 2.66667H5.65998H5.66665Z" fill="#8393E7"/>
</svg>
