<svg width="24" height="24" viewBox="0 0 24 24" fill="none" xmlns="http://www.w3.org/2000/svg">
<path fill-rule="evenodd" clip-rule="evenodd" d="M18.03 7.97001C18.1705 8.11064 18.2494 8.30126 18.2494 8.50001C18.2494 8.69876 18.1705 8.88939 18.03 9.03001L11.03 16.03C10.8894 16.1705 10.6988 16.2494 10.5 16.2494C10.3013 16.2494 10.1107 16.1705 9.97003 16.03L5.97003 12.03C5.89634 11.9613 5.83724 11.8785 5.79625 11.7865C5.75526 11.6946 5.73322 11.5952 5.73144 11.4945C5.72966 11.3938 5.74819 11.2938 5.78591 11.2004C5.82363 11.107 5.87977 11.0222 5.95099 10.951C6.02221 10.8798 6.10705 10.8236 6.20043 10.7859C6.29382 10.7482 6.39385 10.7296 6.49455 10.7314C6.59526 10.7332 6.69457 10.7552 6.78657 10.7962C6.87857 10.8372 6.96137 10.8963 7.03003 10.97L10.5 14.44L16.97 7.97001C17.1107 7.82956 17.3013 7.75067 17.5 7.75067C17.6988 7.75067 17.8894 7.82956 18.03 7.97001Z" fill="#667AE4"/>
</svg>
