<svg width="24" height="24" viewBox="0 0 24 24" fill="none" xmlns="http://www.w3.org/2000/svg">
<path d="M12.8994 11.9964L19.653 5.23619C19.7722 5.11646 19.839 4.95438 19.8389 4.78547C19.8388 4.61656 19.7717 4.45457 19.6524 4.33499C19.4136 4.09739 18.993 4.09619 18.7518 4.33619L12 11.0964L5.24583 4.33439C5.00583 4.09739 4.58522 4.09859 4.34642 4.33559C4.28715 4.39463 4.24023 4.46488 4.2084 4.54224C4.17657 4.61961 4.16046 4.70254 4.16102 4.78619C4.16102 4.95659 4.22702 5.11619 4.34642 5.23439L11.1 11.9958L4.34702 18.7578C4.22786 18.8777 4.16112 19.04 4.16146 19.2091C4.1618 19.3781 4.22918 19.5402 4.34883 19.6596C4.46463 19.7742 4.62842 19.8402 4.79762 19.8402H4.80122C4.97102 19.8396 5.13482 19.773 5.24822 19.6572L12 12.897L18.7542 19.659C18.8736 19.7778 19.0332 19.8438 19.2024 19.8438C19.2861 19.844 19.369 19.8277 19.4463 19.7958C19.5237 19.7639 19.5939 19.717 19.6531 19.6579C19.7123 19.5987 19.7591 19.5284 19.7911 19.4511C19.823 19.3737 19.8393 19.2909 19.839 19.2072C19.839 19.0374 19.773 18.8772 19.653 18.759L12.8994 11.9964Z" fill="#626262"/>
</svg>
