<svg width="18" height="18" viewBox="0 0 18 18" fill="none" xmlns="http://www.w3.org/2000/svg">
<path fill-rule="evenodd" clip-rule="evenodd" d="M8.8125 3.75C9.12316 3.75 9.375 4.00184 9.375 4.3125V8.25H13.3125C13.6232 8.25 13.875 8.50184 13.875 8.8125C13.875 9.12316 13.6232 9.375 13.3125 9.375H8.8125C8.50184 9.375 8.25 9.12316 8.25 8.8125V4.3125C8.25 4.00184 8.50184 3.75 8.8125 3.75Z" fill="#667AE4"/>
<path fill-rule="evenodd" clip-rule="evenodd" d="M1.5 9C1.5 4.85776 4.85776 1.5 9 1.5C13.1422 1.5 16.5 4.85776 16.5 9C16.5 13.1422 13.1422 16.5 9 16.5C4.85776 16.5 1.5 13.1422 1.5 9ZM9 2.54651C5.43573 2.54651 2.54651 5.43573 2.54651 9C2.54651 12.5643 5.43573 15.4535 9 15.4535C12.5643 15.4535 15.4535 12.5643 15.4535 9C15.4535 5.43573 12.5643 2.54651 9 2.54651Z" fill="#667AE4"/>
</svg>
