<svg width="18" height="18" viewBox="0 0 18 18" fill="none" xmlns="http://www.w3.org/2000/svg">
<path fill-rule="evenodd" clip-rule="evenodd" d="M1.5 12.75V14.25H12V12.75C12 12.75 12 9.74998 6.75 9.74998C1.5 9.74998 1.5 12.75 1.5 12.75ZM11.1 12.765C11.0996 12.7592 11.0986 12.7483 11.0967 12.7327C11.0916 12.6922 11.08 12.6225 11.054 12.5332C11.0022 12.3558 10.8944 12.1032 10.6664 11.8426C10.2312 11.3452 9.20271 10.65 6.75 10.65C4.29729 10.65 3.26882 11.3452 2.83357 11.8426C2.6056 12.1032 2.49777 12.3558 2.44603 12.5332C2.41999 12.6225 2.40837 12.6922 2.4033 12.7327C2.40136 12.7483 2.40042 12.7592 2.4 12.765V13.35H11.1V12.765ZM12.8766 10.7592C12.6302 10.3731 12.3187 10.0314 11.955 9.74998C12.5022 9.78339 12.9836 9.85226 13.407 9.94754C16.5 10.6436 16.5 12.75 16.5 12.75V14.25H13.5V12.75C13.4773 12.1674 13.3272 11.5969 13.0603 11.0786C13.0039 10.9692 12.9426 10.8626 12.8766 10.7592ZM14.052 11.0861C14.2596 11.6041 14.3775 12.155 14.3993 12.7149L14.4 12.7324V13.35H15.6V12.765C15.5996 12.76 15.5989 12.7509 15.5974 12.7383C15.5931 12.7025 15.5832 12.6395 15.5609 12.5578C15.5163 12.3949 15.4233 12.1607 15.2271 11.9138C15.0238 11.6578 14.6712 11.3412 14.052 11.0861ZM11.25 8.24998C11.9462 8.24998 12.6139 7.97342 13.1062 7.48114C13.5984 6.98885 13.875 6.32117 13.875 5.62498C13.875 4.92879 13.5984 4.26111 13.1062 3.76883C12.6139 3.27654 11.9462 2.99998 11.25 2.99998C11.0431 2.99902 10.838 3.02324 10.6391 3.07132C10.3417 3.14319 10.0581 3.26837 9.8025 3.44248C9.8363 3.48971 9.86894 3.53763 9.9004 3.5862C10.2931 4.19237 10.503 4.90027 10.503 5.62498C10.503 6.34969 10.2931 7.05759 9.9004 7.66376C9.86894 7.71234 9.8363 7.76026 9.8025 7.80748C10.0581 7.98159 10.3417 8.10678 10.6391 8.17864C10.838 8.22673 11.0431 8.25094 11.25 8.24998ZM11.0745 7.34187C11.1312 7.34753 11.1884 7.35026 11.2458 7.34999L11.25 7.34997C11.7075 7.34998 12.1463 7.16824 12.4698 6.84474C12.7933 6.52124 12.975 6.08248 12.975 5.62498C12.975 5.16748 12.7933 4.72872 12.4698 4.40522C12.1463 4.08172 11.7075 3.89998 11.25 3.89998H11.2458C11.1884 3.89971 11.1312 3.90243 11.0745 3.90809C11.2903 4.45136 11.403 5.03366 11.403 5.62498C11.403 6.21631 11.2903 6.7986 11.0745 7.34187ZM8.475 5.62498C8.475 5.28381 8.37383 4.9503 8.18429 4.66662C7.99474 4.38295 7.72533 4.16185 7.41013 4.03129C7.09493 3.90073 6.74809 3.86657 6.41347 3.93313C6.07885 3.99969 5.77149 4.16398 5.53024 4.40522C5.289 4.64647 5.12471 4.95383 5.05815 5.28845C4.99159 5.62307 5.02575 5.96991 5.15631 6.28511C5.28687 6.60031 5.50797 6.86972 5.79164 7.05927C6.07532 7.24881 6.40883 7.34998 6.75 7.34998C7.2075 7.34998 7.64626 7.16824 7.96976 6.84474C8.29326 6.52124 8.475 6.08248 8.475 5.62498ZM8.93261 4.16661C9.22105 4.59829 9.375 5.10581 9.375 5.62498C9.375 6.32117 9.09844 6.98885 8.60616 7.48114C8.11387 7.97342 7.44619 8.24998 6.75 8.24998C6.23082 8.24998 5.72331 8.09603 5.29163 7.80759C4.85995 7.51915 4.5235 7.10918 4.32482 6.62953C4.12614 6.14987 4.07415 5.62207 4.17544 5.11287C4.27673 4.60367 4.52673 4.13594 4.89384 3.76883C5.26096 3.40171 5.72869 3.15171 6.23789 3.05042C6.74709 2.94913 7.27489 3.00112 7.75454 3.1998C8.2342 3.39848 8.64417 3.73493 8.93261 4.16661Z" fill="#667AE4"/>
</svg>
