<svg width="18" height="18" viewBox="0 0 18 18" fill="none" xmlns="http://www.w3.org/2000/svg">
<path d="M12.15 6.7073V6.375C12.15 4.87875 10.0221 3.75 7.2 3.75C4.37794 3.75 2.25 4.87875 2.25 6.375V8.76136C2.25 10.0076 3.72656 10.998 5.85 11.2945V11.625C5.85 13.1213 7.97794 14.25 10.8 14.25C13.6221 14.25 15.75 13.1213 15.75 11.625V9.23864C15.75 8.00369 14.3201 7.01216 12.15 6.7073ZM14.85 9.23864C14.85 10.0273 13.1181 10.9091 10.8 10.9091C10.5902 10.9091 10.3821 10.9013 10.1767 10.887C11.3901 10.4181 12.15 9.65625 12.15 8.76136V7.67199C13.8302 7.93747 14.85 8.65815 14.85 9.23864ZM5.85 10.3274V8.90812C6.29763 8.96999 6.74859 9.00068 7.2 9C7.65141 9.00068 8.10237 8.96999 8.55 8.90812V10.3274C8.10304 10.3974 7.65181 10.4323 7.2 10.4318C6.74819 10.4323 6.29696 10.3974 5.85 10.3274ZM11.25 7.92196V8.76136C11.25 9.2619 10.5519 9.79943 9.45 10.1258V8.73153C10.1762 8.5448 10.791 8.26679 11.25 7.92196ZM7.2 4.70455C9.51806 4.70455 11.25 5.58631 11.25 6.375C11.25 7.16369 9.51806 8.04545 7.2 8.04545C4.88194 8.04545 3.15 7.16369 3.15 6.375C3.15 5.58631 4.88194 4.70455 7.2 4.70455ZM3.15 8.76136V7.92196C3.609 8.26679 4.22381 8.5448 4.95 8.73153V10.1258C3.84806 9.79943 3.15 9.2619 3.15 8.76136ZM6.75 11.625V11.3762C6.89794 11.3822 7.04756 11.3864 7.2 11.3864C7.41825 11.3864 7.63144 11.3786 7.84069 11.3655C8.07315 11.4537 8.30993 11.5286 8.55 11.5898V12.9894C7.44806 12.6631 6.75 12.1255 6.75 11.625ZM9.45 13.1911V11.7682C9.89748 11.832 10.3485 11.8639 10.8 11.8636C11.2514 11.8643 11.7024 11.8336 12.15 11.7718V13.1911C11.2548 13.3303 10.3452 13.3303 9.45 13.1911ZM13.05 12.9894V11.5952C13.7762 11.4084 14.391 11.1304 14.85 10.7856V11.625C14.85 12.1255 14.1519 12.6631 13.05 12.9894Z" fill="#667AE4"/>
</svg>
