<svg width="18" height="18" viewBox="0 0 18 18" fill="none" xmlns="http://www.w3.org/2000/svg">
<path fill-rule="evenodd" clip-rule="evenodd" d="M9.23077 3.15C8.02262 3.15168 6.86046 3.64248 6.00021 4.52117C5.13919 5.40064 4.65151 6.59699 4.65 7.84879C4.65018 9.93626 5.7431 11.8364 6.95838 13.2905C7.87349 14.3855 8.80439 15.1632 9.23077 15.4964C9.65715 15.1632 10.588 14.3855 11.5032 13.2905C12.7185 11.8364 13.8114 9.93618 13.8115 7.84865C13.81 6.5969 13.3223 5.40061 12.4613 4.52117C11.6011 3.64248 10.4389 3.15168 9.23077 3.15ZM9.23077 2.25C7.77768 2.25168 6.38459 2.84204 5.3571 3.89156C4.32961 4.94107 3.75165 6.36403 3.75 7.84827C3.75 12.6386 8.73252 16.2565 8.9449 16.4079C9.02867 16.4678 9.12848 16.5 9.23077 16.5C9.33306 16.5 9.43286 16.4678 9.51664 16.4079C9.72902 16.2565 14.7115 12.6386 14.7115 7.84827C14.7099 6.36403 14.1319 4.94107 13.1044 3.89156C12.077 2.84204 10.6839 2.25168 9.23077 2.25ZM9.23077 4.91254C9.80725 4.91254 10.3692 5.08724 10.8454 5.41225C11.3213 5.7371 11.6895 6.19678 11.9061 6.73101C12.1227 7.26508 12.1791 7.8517 12.0689 8.41745C11.9587 8.9833 11.6863 9.50561 11.2831 9.91736C10.8798 10.3293 10.3636 10.6121 9.79878 10.7269C9.23379 10.8417 8.64837 10.7826 8.11739 10.5579C7.58662 10.3333 7.13607 9.95439 6.82048 9.47195C6.50502 8.98971 6.33776 8.42471 6.33776 7.84827C6.33776 7.07575 6.63802 6.33113 7.17839 5.77918C7.71939 5.22658 8.45726 4.91254 9.23077 4.91254ZM10.338 6.15562C10.0103 5.93193 9.62495 5.81254 9.23077 5.81254C8.70219 5.81254 8.19526 6.02701 7.8215 6.40879C7.44774 6.79056 7.23776 7.30836 7.23776 7.84827C7.23776 8.2509 7.35465 8.64449 7.57364 8.97926C7.79264 9.31404 8.1039 9.57496 8.46808 9.72904C8.83225 9.88312 9.23298 9.92344 9.61959 9.84489C10.0062 9.76634 10.3613 9.57245 10.64 9.28775C10.9188 9.00305 11.1086 8.64032 11.1855 8.24542C11.2624 7.85053 11.2229 7.44121 11.0721 7.06923C10.9212 6.69725 10.6658 6.37931 10.338 6.15562Z" fill="#667AE4"/>
</svg>
