<svg width="80" height="48" viewBox="0 0 80 48" fill="none" xmlns="http://www.w3.org/2000/svg">
<path d="M51.5422 13.1061L41.1074 3.10715C40.962 2.96733 40.7892 2.85638 40.5989 2.78068C40.4087 2.70498 40.2047 2.66602 39.9987 2.66602C39.7927 2.66602 39.5887 2.70498 39.3985 2.78068C39.2082 2.85638 39.0354 2.96733 38.89 3.10715L28.4552 13.1061C28.1627 13.3881 27.999 13.7697 28 14.1673V26.1661C28 26.2987 28.055 26.4258 28.1528 26.5196C28.2507 26.6133 28.3834 26.666 28.5217 26.666H36.8696C37.0079 26.666 37.1406 26.6133 37.2385 26.5196C37.3363 26.4258 37.3913 26.2987 37.3913 26.1661V18.6668H42.6087V26.1661C42.6087 26.2987 42.6637 26.4258 42.7615 26.5196C42.8594 26.6133 42.9921 26.666 43.1304 26.666H51.4783C51.6166 26.666 51.7493 26.6133 51.8472 26.5196C51.945 26.4258 52 26.2987 52 26.1661V14.1673C52.0002 13.9703 51.9598 13.7751 51.8813 13.5931C51.8027 13.411 51.6875 13.2455 51.5422 13.1061ZM50.9565 25.6661H43.6522V18.1669C43.6522 18.0343 43.5972 17.9071 43.4994 17.8134C43.4015 17.7196 43.2688 17.6669 43.1304 17.6669H36.8696C36.7312 17.6669 36.5985 17.7196 36.5006 17.8134C36.4028 17.9071 36.3478 18.0343 36.3478 18.1669V25.6661H29.0435V14.1673C29.0434 14.1016 29.0569 14.0366 29.0831 13.9759C29.1092 13.9152 29.1477 13.86 29.1961 13.8136L39.6309 3.81458C39.6793 3.7681 39.7369 3.73122 39.8002 3.70606C39.8635 3.6809 39.9314 3.66795 40 3.66795C40.0686 3.66795 40.1365 3.6809 40.1998 3.70606C40.2631 3.73122 40.3207 3.7681 40.3691 3.81458L50.8039 13.8136C50.8523 13.86 50.8908 13.9152 50.9169 13.9759C50.9431 14.0366 50.9566 14.1016 50.9565 14.1673V25.6661Z" fill="#ACACAC"/>
<path d="M43.2891 41.832V44.8672H36.0352V41.832H43.2891ZM37.1367 42.6875V44.0117H42.2109V42.6875H37.1367ZM43.9219 35.3281V36.1836H35.3789V35.3281H39.1172V34.3555H40.2305V35.3281H43.9219ZM39.668 36.5586C41.8828 36.5586 43.1133 37.0625 43.1133 38.0469C43.1133 38.9434 42.0879 39.4414 40.2305 39.5234V40.2383H44.4609V41.1172H34.8867V40.2383H39.1172V39.5234C37.2598 39.4414 36.2109 38.9434 36.2227 38.0469C36.2109 37.0625 37.4648 36.5586 39.668 36.5586ZM39.668 37.3203C38.2031 37.332 37.4062 37.5664 37.4062 38.0469C37.4062 38.5156 38.2031 38.7734 39.668 38.7734C41.1445 38.7734 41.9297 38.5156 41.9297 38.0469C41.9297 37.5664 41.1445 37.332 39.668 37.3203Z" fill="#ACACAC"/>
</svg>
