<svg width="497" height="221" viewBox="0 0 497 221" fill="none" xmlns="http://www.w3.org/2000/svg">
<path d="M28.7422 159.082V176.738H26.6523V167.676H24.7578V175.918H22.7266V159.551H24.7578V165.918H26.6523V159.082H28.7422ZM21.2227 161.309C21.2227 166.074 19.7188 170.176 14.6992 173.047L13.4492 171.543C17.209 169.365 18.8008 166.572 19.1133 163.047H14.2695V161.309H21.2227ZM33.385 159.863V162.109H37.5061V159.863H39.6545V167.559H31.2366V159.863H33.385ZM33.385 165.84H37.5061V163.75H33.385V165.84ZM44.5569 159.082V162.656H47.0178V164.414H44.5569V168.125H42.3889V159.082H44.5569ZM44.5569 168.828V173.457H35.1819V174.863H45.1038V176.582H33.0334V171.875H42.3889V170.527H33.0139V168.828H44.5569ZM54.0044 164.102C54.0044 166.836 55.6255 169.941 58.4184 171.23L57.2075 172.949C55.2153 172.012 53.7407 170.117 52.9497 167.91C52.1489 170.332 50.6059 172.402 48.5747 173.379L47.3052 171.68C50.1177 170.352 51.8169 167.031 51.8364 164.102V162.617H47.9888V160.82H57.6958V162.617H54.0044V164.102ZM61.5044 159.082V165.957H64.2192V167.773H61.5044V176.738H59.3364V159.082H61.5044ZM80.8347 166.152V167.871H64.7214V166.152H80.8347ZM78.9206 163.301V165.02H66.7722V159.531H78.7644V161.27H68.9402V163.301H78.9206ZM78.8034 169.082V173.516H68.7644V174.863H79.2917V176.562H66.6355V171.953H76.6745V170.723H66.6159V169.082H78.8034ZM89.7939 159.355C93.8173 159.355 96.1416 160.43 96.1611 162.383C96.1416 164.355 93.8173 165.41 89.7939 165.43C85.7705 165.41 83.4267 164.355 83.4267 162.383C83.4267 160.43 85.7705 159.355 89.7939 159.355ZM89.7939 160.957C87.0986 160.957 85.6923 161.465 85.7119 162.383C85.6923 163.359 87.0986 163.809 89.7939 163.809C92.5283 163.809 93.915 163.359 93.915 162.383C93.915 161.465 92.5283 160.957 89.7939 160.957ZM97.8603 166.367V168.105H81.7666V166.367H97.8603ZM95.8486 169.297V173.613H85.8095V174.922H96.3369V176.582H83.6806V172.07H93.7197V170.898H83.6611V169.297H95.8486ZM109.08 159.863C111.755 159.844 113.708 161.367 113.708 163.574C113.708 165.742 111.755 167.285 109.08 167.266C106.423 167.285 104.49 165.742 104.49 163.574C104.49 161.367 106.423 159.844 109.08 159.863ZM109.08 161.621C107.634 161.602 106.58 162.363 106.599 163.574C106.58 164.766 107.634 165.488 109.08 165.488C110.583 165.488 111.638 164.766 111.638 163.574C111.638 162.363 110.583 161.602 109.08 161.621ZM118.083 159.102V176.719H115.935V159.102H118.083ZM103.337 168.477C106.521 168.477 110.974 168.418 114.783 167.852L114.939 169.453C113.415 169.746 111.833 169.932 110.29 170.039V176.191H108.103V170.176C106.472 170.244 104.939 170.254 103.611 170.273L103.337 168.477ZM134.289 159.102V164.648H136.75V166.445H134.289V172.285H132.121V159.102H134.289ZM130.851 161.055V162.793H120.382V161.055H124.543V159.082H126.711V161.055H130.851ZM125.617 163.516C128.156 163.516 129.914 164.863 129.933 166.895C129.914 168.906 128.156 170.234 125.617 170.234C123.058 170.234 121.281 168.906 121.281 166.895C121.281 164.863 123.058 163.516 125.617 163.516ZM125.617 165.195C124.269 165.195 123.39 165.82 123.39 166.895C123.39 167.949 124.269 168.574 125.617 168.555C126.965 168.574 127.863 167.949 127.863 166.895C127.863 165.82 126.965 165.195 125.617 165.195ZM134.992 174.629V176.387H122.98V171.25H125.148V174.629H134.992ZM151.035 161.504C151.035 164.238 153.711 166.973 157.402 167.617L156.426 169.434C153.467 168.809 151.045 167.021 149.902 164.648C148.731 167.002 146.309 168.799 143.36 169.434L142.402 167.617C146.055 166.953 148.711 164.219 148.731 161.504V160.195H151.035V161.504ZM158.047 172.695V174.492H141.914V172.695H158.047ZM173.764 159.082V176.758H171.616V167.227H168.295V165.469H171.616V159.082H173.764ZM168.022 160.605V162.383H161.948V165.547H167.319V167.266H161.948V170.898C164.633 170.889 166.645 170.801 168.92 170.43L169.135 172.188C166.557 172.578 164.311 172.676 161.147 172.695H159.76V160.605H168.022ZM190.692 159.082V176.758H188.505V159.082H190.692ZM185.614 160.684V162.461H179.286V170.664C182.538 170.654 184.579 170.557 186.923 170.137L187.137 171.934C184.618 172.402 182.333 172.5 178.602 172.5H177.098V160.684H185.614ZM196.487 173.613L194.847 179.082H192.991L194.007 173.613H196.487ZM218.546 172.812V174.59H202.413V172.812H209.367V168.965H204.191V160.449H216.691V168.965H211.515V172.812H218.546ZM206.32 162.188V167.266H214.542V162.188H206.32ZM233.384 159.082V163.34H235.845V165.156H233.384V169.375H231.216V159.082H233.384ZM228.462 160.117C228.462 164.746 225.455 167.93 220.181 169.277L219.283 167.617C223.414 166.553 225.757 164.443 226.138 161.875H220.162V160.117H228.462ZM233.384 170.117V176.738H231.216V171.855H221.627V170.117H233.384ZM250.859 160.645V162.246C250.84 164.395 250.879 166.855 250.078 170.586L247.949 170.371C248.252 168.955 248.437 167.695 248.555 166.562L238.144 167.148L237.832 165.293L248.672 164.902C248.711 163.984 248.721 163.164 248.73 162.402H238.379V160.645H250.859ZM252.598 172.773V174.57H236.504V172.773H242.441V168.418H244.59V172.773H252.598ZM274.168 167.266V169.043H258.055V167.266H274.168ZM272.313 164.141V165.879H260.028V159.648H272.215V161.406H262.196V164.141H272.313ZM266.082 170.273C269.891 170.254 272.176 171.426 272.196 173.477C272.176 175.547 269.891 176.719 266.082 176.719C262.235 176.719 259.93 175.547 259.93 173.477C259.93 171.426 262.235 170.254 266.082 170.273ZM266.082 171.934C263.504 171.934 262.117 172.48 262.137 173.477C262.117 174.512 263.504 175.039 266.082 175.039C268.602 175.039 270.008 174.512 270.028 173.477C270.008 172.48 268.602 171.934 266.082 171.934ZM293.434 159.082V165.781H296.149V167.559H293.434V176.758H291.266V159.082H293.434ZM288.591 160.762V162.52H282.497V170.625C285.241 170.625 287.409 170.488 289.841 170.059L290.095 171.895C287.36 172.363 284.977 172.441 281.794 172.441H280.329V160.762H288.591ZM312.98 161.445V163.223H310.577V165.234H312.98V167.031H310.577V169.453H308.409V159.082H310.577V161.445H312.98ZM301.612 160.098C304.327 160.078 306.358 161.816 306.378 164.316C306.358 166.797 304.327 168.535 301.612 168.555C298.878 168.535 296.827 166.797 296.847 164.316C296.827 161.816 298.878 160.078 301.612 160.098ZM301.612 161.914C300.089 161.914 298.956 162.871 298.976 164.316C298.956 165.781 300.089 166.699 301.612 166.719C303.116 166.699 304.249 165.781 304.249 164.316C304.249 162.871 303.116 161.914 301.612 161.914ZM304.835 169.863C308.448 169.863 310.733 171.152 310.753 173.301C310.733 175.449 308.448 176.719 304.835 176.719C301.183 176.719 298.858 175.449 298.858 173.301C298.858 171.152 301.183 169.863 304.835 169.863ZM304.835 171.602C302.413 171.602 301.026 172.188 301.026 173.301C301.026 174.414 302.413 174.98 304.835 174.98C307.257 174.98 308.605 174.414 308.605 173.301C308.605 172.188 307.257 171.602 304.835 171.602ZM327.622 159.102V164.648H330.083V166.445H327.622V172.285H325.454V159.102H327.622ZM324.185 161.055V162.793H313.716V161.055H317.876V159.082H320.044V161.055H324.185ZM318.95 163.516C321.49 163.516 323.247 164.863 323.267 166.895C323.247 168.906 321.49 170.234 318.95 170.234C316.392 170.234 314.615 168.906 314.615 166.895C314.615 164.863 316.392 163.516 318.95 163.516ZM318.95 165.195C317.603 165.195 316.724 165.82 316.724 166.895C316.724 167.949 317.603 168.574 318.95 168.555C320.298 168.574 321.197 167.949 321.197 166.895C321.197 165.82 320.298 165.195 318.95 165.195ZM328.325 174.629V176.387H316.314V171.25H318.482V174.629H328.325ZM351.381 172.812V174.59H335.248V172.812H342.201V168.965H337.025V160.449H349.525V168.965H344.349V172.812H351.381ZM339.154 162.188V167.266H347.377V162.188H339.154ZM367 159.102V169.102H364.812V159.102H367ZM367 169.961V176.523H355.281V169.961H367ZM357.43 171.68V174.766H364.871V171.68H357.43ZM357.371 159.941C360.086 159.941 362.117 161.66 362.117 164.16C362.117 166.582 360.086 168.34 357.371 168.34C354.637 168.34 352.605 166.582 352.605 164.16C352.605 161.66 354.637 159.941 357.371 159.941ZM357.371 161.777C355.828 161.777 354.715 162.695 354.734 164.16C354.715 165.586 355.828 166.504 357.371 166.504C358.895 166.504 359.988 165.586 359.988 164.16C359.988 162.695 358.895 161.777 357.371 161.777ZM377.365 159.355C381.389 159.355 383.713 160.43 383.733 162.383C383.713 164.355 381.389 165.41 377.365 165.43C373.342 165.41 370.998 164.355 370.998 162.383C370.998 160.43 373.342 159.355 377.365 159.355ZM377.365 160.957C374.67 160.957 373.264 161.465 373.283 162.383C373.264 163.359 374.67 163.809 377.365 163.809C380.1 163.809 381.487 163.359 381.487 162.383C381.487 161.465 380.1 160.957 377.365 160.957ZM385.432 166.367V168.105H369.338V166.367H385.432ZM383.42 169.297V173.613H373.381V174.922H383.908V176.582H371.252V172.07H381.291V170.898H371.233V169.297H383.42Z" fill="#C4C4C4"/>
<path d="M30.856 210.376V212.776H15.976V206.584H19V210.376H30.856ZM13.624 205.288V202.888H21.832V199.864H24.808V202.888H33.112V205.288H13.624ZM14.68 198.856C19.36 198.184 21.808 195.616 21.784 193.096V192.424H24.856V193.096C24.856 195.736 27.208 198.232 32.008 198.856L30.856 201.16C27.256 200.608 24.64 199.024 23.296 196.816C21.976 199.024 19.384 200.632 15.832 201.16L14.68 198.856ZM39.9822 210.568H48.7662V209.08H39.9822V210.568ZM33.8382 200.824C37.7982 200.824 43.0062 200.824 47.5662 200.248L47.7102 202.36C46.0782 202.648 44.3742 202.816 42.7182 202.96V205.432H39.9822V206.776H48.7662V205H51.6942V212.92H37.0062V205H39.7422V203.104C37.7502 203.176 35.8542 203.176 34.1742 203.176L33.8382 200.824ZM34.5582 197.704C37.9662 197.008 39.5022 195.184 39.5022 193.24V192.376H42.5742V193.24C42.5742 195.04 44.1342 196.744 47.4702 197.368L46.1742 199.624C43.7262 199.144 42.0222 197.992 41.0862 196.48C40.1502 198.136 38.4222 199.408 35.9022 199.96L34.5582 197.704ZM48.7182 204.136V191.848H51.6942V204.136H48.7182ZM72.4364 191.8V213.16H69.6524V191.8H72.4364ZM53.7164 206.632C58.0364 204.064 59.9084 200.944 60.3164 196.744H54.8684V194.344H63.2684C63.2684 196.384 63.0524 198.304 62.5484 200.056H65.0924V192.328H67.9244V212.2H65.0924V202.408H61.6364C60.4124 204.856 58.4444 206.968 55.3964 208.696L53.7164 206.632ZM91.2218 193.912V196.264H86.9498C86.9978 198.376 88.5338 200.512 91.9418 201.352L90.5978 203.656C88.1498 203.032 86.4458 201.712 85.4858 200.008C84.5258 201.88 82.8218 203.368 80.3258 204.04L78.9338 201.688C82.3178 200.824 83.9258 198.568 83.9738 196.264H79.6538V193.912H83.9738V191.752H86.9978V193.912H91.2218ZM80.9978 210.808C84.7178 210.328 86.8058 208.864 87.3338 207.256H81.9098V204.904H96.2618V207.256H90.8378C91.3898 208.84 93.5018 210.352 97.2218 210.808L96.1178 213.112C92.7098 212.656 90.3098 211.288 89.0858 209.464C87.8378 211.288 85.4618 212.608 82.0538 213.064L80.9978 210.808ZM92.9978 203.992V191.8H96.0218V196.6H98.9018V199.096H96.0218V203.992H92.9978ZM116.812 193.672V195.688C116.812 198.352 116.812 201.352 115.996 205.912L112.972 205.576C113.764 201.568 113.812 198.592 113.836 196.072H101.26V193.672H116.812ZM99.244 210.568V208.12H106.204V200.776H109.18V208.12H118.732V210.568H99.244ZM136.509 193.96V196.312H132.237C132.309 198.472 133.845 200.608 137.229 201.496L135.837 203.8C133.437 203.176 131.733 201.832 130.773 200.104C129.837 202.024 128.133 203.512 125.613 204.184L124.221 201.88C127.581 200.968 129.189 198.688 129.261 196.312H124.941V193.96H129.261V191.752H132.285V193.96H136.509ZM127.341 212.92V205.192H141.309V212.92H127.341ZM130.317 210.52H138.333V207.592H130.317V210.52ZM138.285 204.328V191.8H141.309V196.84H144.189V199.288H141.309V204.328H138.285ZM150.436 193.336C152.332 193.336 153.94 194.392 154.9 196.216H159.604V191.8H162.532V213.208H159.604V205.24H155.116C154.156 207.352 152.476 208.552 150.436 208.552C147.172 208.552 144.868 205.6 144.868 200.92C144.868 196.264 147.172 193.336 150.436 193.336ZM147.748 200.92C147.724 204.112 148.828 205.816 150.436 205.816C152.044 205.816 153.1 204.112 153.124 200.92C153.1 197.752 152.044 196.024 150.436 196.024C148.828 196.024 147.724 197.752 147.748 200.92ZM155.74 198.616C155.884 199.336 155.956 200.104 155.956 200.92C155.956 201.592 155.908 202.24 155.812 202.84H159.604V198.616H155.74ZM181.642 191.8V196.408H184.522V198.808H181.642V203.368H178.618V191.8H181.642ZM164.698 195.688V193.432H169.546V191.656H172.522V193.432H177.37V195.688H164.698ZM165.754 199.72C165.754 197.584 167.842 196.216 171.034 196.216C174.226 196.216 176.29 197.584 176.314 199.72C176.29 201.88 174.226 203.176 171.034 203.176C167.842 203.176 165.754 201.88 165.754 199.72ZM167.482 206.344V204.232H181.642V209.56H170.458V210.808H182.266V213.016H167.53V207.544H178.666V206.344H167.482ZM168.682 199.72C168.658 200.608 169.57 201.04 171.034 201.064C172.522 201.04 173.434 200.608 173.434 199.72C173.434 198.808 172.522 198.304 171.034 198.328C169.57 198.304 168.658 198.808 168.682 199.72ZM201.147 193.48C201.147 196 203.715 198.784 208.587 199.384L207.435 201.832C203.691 201.28 200.955 199.552 199.587 197.224C198.195 199.552 195.459 201.28 191.739 201.832L190.587 199.384C195.435 198.784 198.003 196 197.979 193.48V192.472H201.147V193.48ZM189.819 205.864V203.416H209.307V205.864H201.003V213.16H198.027V205.864H189.819ZM222.717 205.528C222.717 207.232 223.437 209.008 225.165 210.16C226.917 208.936 227.709 207.112 227.709 205.528V204.76H230.637V205.528C230.637 207.736 231.813 209.8 234.669 210.664L233.181 212.824C231.165 212.152 229.821 210.856 229.101 209.224C228.381 210.856 227.157 212.272 225.261 213.016C223.245 212.296 221.997 210.928 221.301 209.272C220.533 210.88 219.213 212.152 217.245 212.824L215.805 210.664C218.589 209.704 219.789 207.592 219.789 205.528V204.76H222.717V205.528ZM215.277 198.04C215.277 195.04 217.773 192.928 221.133 192.904C224.445 192.928 226.941 195.04 226.941 198.04C226.941 201.04 224.445 203.152 221.133 203.128C217.773 203.152 215.277 201.04 215.277 198.04ZM218.205 198.04C218.181 199.672 219.405 200.68 221.133 200.68C222.789 200.68 223.989 199.672 223.965 198.04C223.989 196.408 222.789 195.424 221.133 195.448C219.405 195.424 218.181 196.408 218.205 198.04ZM229.821 203.896V191.848H232.797V203.896H229.821ZM252.435 197.656V200.008H237.555V192.568H240.531V197.656H252.435ZM235.107 204.616V202.264H254.595V204.616H235.107ZM237.363 212.68V206.344H240.339V210.28H252.579V212.68H237.363ZM267.188 192.712C270.452 192.712 272.828 194.56 272.804 197.272C272.828 199.912 270.452 201.784 267.188 201.784C263.948 201.784 261.572 199.912 261.572 197.272C261.572 194.56 263.948 192.712 267.188 192.712ZM260.276 203.08C264.068 203.08 269.42 202.984 273.956 202.312L274.148 204.52C272.396 204.856 270.596 205.072 268.82 205.216V212.536H265.844V205.408C263.972 205.48 262.196 205.504 260.66 205.528L260.276 203.08ZM264.5 197.272C264.476 198.568 265.604 199.36 267.188 199.336C268.844 199.36 269.972 198.568 269.972 197.272C269.972 195.88 268.844 195.088 267.188 195.112C265.604 195.088 264.476 195.88 264.5 197.272ZM275.252 213.16V191.848H278.228V213.16H275.252ZM298.251 191.8V213.16H295.227V191.8H298.251ZM280.491 206.872C284.019 205.336 285.771 201.76 285.771 198.52V197.704H281.211V195.304H285.771V192.28H288.747V195.304H293.163V197.704H288.747V198.52C288.747 201.592 290.499 205.096 294.027 206.536L292.443 208.84C290.019 207.856 288.267 205.816 287.307 203.368C286.347 205.96 284.595 208.144 282.123 209.176L280.491 206.872ZM323.468 191.8V213.16H320.444V191.8H323.468ZM305.612 207.112C311.108 204.496 313.532 201.136 314.012 196.408H306.716V194.056H317.036C317.06 200.512 314.78 205.912 307.148 209.512L305.612 207.112ZM342.626 191.848V197.848H345.506V200.296H342.626V207.544H339.602V191.848H342.626ZM326.306 204.136V193.336H329.282V196.456H333.65V193.336H336.674V204.136H326.306ZM328.754 212.776V205.96H331.778V210.376H343.394V212.776H328.754ZM329.282 201.832H333.65V198.76H329.282V201.832ZM361.748 193.864C361.748 200.44 359.972 205.936 352.292 209.944L350.66 207.688C354.044 205.912 356.132 203.92 357.356 201.568L351.188 202.12L350.756 199.576L358.292 199.144C358.532 198.232 358.7 197.272 358.772 196.264H351.908V193.864H361.748ZM361.7 202.456V200.008H365.828V191.8H368.804V213.16H365.828V202.456H361.7ZM390.458 203.704V206.104H386.042V213.208H383.066V206.104H378.506V213.208H375.482V206.104H370.97V203.704H390.458ZM373.274 201.448V192.856H388.154V201.448H373.274ZM376.202 199.048H385.178V195.208H376.202V199.048ZM409.088 191.8V213.16H406.112V191.8H409.088ZM392.288 207.88V193.864H395.264V205.336C398.144 205.288 401.24 205.024 404.384 204.424L404.72 206.872C401 207.664 397.472 207.904 394.16 207.88H392.288ZM423.35 193.576V196.024H415.43V199.528H422.438V201.88H415.43V205.912C418.718 205.888 421.31 205.768 424.31 205.288L424.598 207.688C421.238 208.216 418.166 208.312 414.326 208.312H412.502V193.576H423.35ZM426.23 213.16V191.8H429.254V213.16H426.23ZM444.488 196.648C444.512 200.656 446.12 204.568 449.672 206.104L447.848 208.504C445.472 207.352 443.888 205.216 443 202.576C442.088 205.384 440.432 207.688 438.008 208.888L436.136 206.44C439.784 204.784 441.44 200.656 441.464 196.648V193.48H444.488V196.648ZM447.272 200.92V198.52H451.496V191.8H454.424V213.208H451.496V200.92H447.272ZM474.446 191.8V213.208H471.422V191.8H474.446ZM457.646 208.216V193.528H460.67V198.712H465.23V193.528H468.206V208.216H457.646ZM460.67 205.768H465.23V201.016H460.67V205.768ZM487.988 194.632C487.988 197.776 490.748 201.112 495.572 201.928L494.276 204.424C490.556 203.68 487.796 201.592 486.404 198.856C485.012 201.568 482.228 203.656 478.532 204.424L477.236 201.928C482.012 201.088 484.772 197.728 484.82 194.632V193.096H487.988V194.632ZM476.756 210.52V208.072H496.292V210.52H476.756Z" fill="#667AE4"/>
<g filter="url(#filter0_d_1171_47829)">
<path fill-rule="evenodd" clip-rule="evenodd" d="M128 48.8157C128 47.4505 128.001 46.0851 127.992 44.7198C127.985 43.5697 127.972 42.4198 127.941 41.2702C127.873 38.7647 127.725 36.2376 127.28 33.7599C126.828 31.2466 126.09 28.9073 124.927 26.6237C123.784 24.3791 122.29 22.3252 120.508 20.5445C118.727 18.7638 116.672 17.2713 114.427 16.1287C112.141 14.9655 109.799 14.2277 107.283 13.776C104.805 13.331 102.277 13.1835 99.7718 13.1158C98.6213 13.0847 97.4709 13.0716 96.3202 13.0645C94.9542 13.0561 93.5882 13.0568 92.2221 13.0568L76.3612 13H64.4984L48.9181 13.0568C47.5494 13.0568 46.1807 13.0561 44.8121 13.0645C43.659 13.0716 42.5065 13.0847 41.3539 13.1158C38.8424 13.1835 36.309 13.3312 33.8252 13.7767C31.3057 14.2283 28.9605 14.9657 26.6714 16.1282C24.4212 17.2709 22.3622 18.7635 20.577 20.5445C18.792 22.325 17.2957 24.3785 16.1503 26.6227C14.9842 28.9075 14.2448 31.2481 13.7917 33.7629C13.3457 36.2395 13.1979 38.7658 13.1299 41.2702C13.0989 42.4199 13.0856 43.5698 13.0786 44.7198C13.0702 46.0853 13 47.7814 13 49.1467L13.0004 64.5112L13 76.501L13.0709 92.1919C13.0709 93.559 13.0703 94.9262 13.0786 96.2933C13.0856 97.445 13.0989 98.5964 13.1301 99.7477C13.1979 102.256 13.346 104.787 13.7924 107.268C14.2453 109.785 14.9846 112.127 16.1498 114.414C17.2953 116.662 18.7918 118.718 20.577 120.502C22.3621 122.285 24.4205 123.779 26.6702 124.923C28.9607 126.088 31.3071 126.827 33.8281 127.279C36.3108 127.725 38.8434 127.873 41.3539 127.94C42.5065 127.972 43.6591 127.985 44.8122 127.992C46.1809 128 47.5494 128 48.9181 128L64.6392 128H76.5314L92.2221 127.999C93.5882 127.999 94.9542 128 96.3202 127.992C97.4709 127.985 98.6213 127.972 99.7718 127.94C102.278 127.873 104.807 127.725 107.286 127.279C109.801 126.826 112.141 126.088 114.426 124.924C116.672 123.78 118.727 122.285 120.508 120.502C122.29 118.719 123.783 116.662 124.927 114.415C126.09 112.127 126.828 109.784 127.28 107.265C127.726 104.785 127.873 102.255 127.941 99.7477C127.972 98.5963 127.985 97.4449 127.992 96.2933C128.001 94.9262 128 93.559 128 92.1919C128 92.1919 127.999 76.778 127.999 76.501V64.4986C127.999 64.294 128 48.8157 128 48.8157Z" fill="white"/>
</g>
<mask id="mask0_1171_47829" style="mask-type:luminance" maskUnits="userSpaceOnUse" x="13" y="13" width="114" height="114">
<path fill-rule="evenodd" clip-rule="evenodd" d="M127 48.5042C127 47.1509 127.001 45.7974 126.992 44.444C126.985 43.3038 126.972 42.164 126.941 41.0244C126.874 38.5406 126.728 36.0355 126.286 33.5794C125.838 31.0879 125.107 28.769 123.954 26.5052C122.82 24.2801 121.34 22.2441 119.573 20.4789C117.807 18.7137 115.771 17.2342 113.545 16.1015C111.279 14.9484 108.957 14.2171 106.463 13.7692C104.007 13.3282 101.501 13.1819 99.0172 13.1148C97.8768 13.084 96.7364 13.071 95.5957 13.0639C94.2416 13.0556 92.8874 13.0563 91.5332 13.0563L75.8102 13H64.0506L48.6058 13.0563C47.249 13.0563 45.8922 13.0556 44.5354 13.0639C43.3924 13.071 42.2499 13.084 41.1073 13.1148C38.6177 13.1819 36.1063 13.3283 33.6441 13.7699C31.1465 14.2176 28.8217 14.9486 26.5525 16.101C24.3219 17.2338 22.2808 18.7134 20.5111 20.4789C18.7416 22.2439 17.2584 24.2796 16.1229 26.5042C14.9669 28.7692 14.2339 31.0894 13.7849 33.5823C13.3427 36.0375 13.1962 38.5417 13.1288 41.0244C13.0981 42.1641 13.0848 43.304 13.0779 44.444C13.0696 45.7976 13 47.4789 13 48.8324L13.0004 64.0632L13 75.9488L13.0703 91.5032C13.0703 92.8585 13.0697 94.2138 13.0779 95.569C13.0848 96.7107 13.0981 97.8521 13.1289 98.9933C13.1962 101.48 13.343 103.989 13.7855 106.448C14.2345 108.943 14.9673 111.265 16.1224 113.532C17.258 115.76 18.7415 117.799 20.5111 119.567C22.2807 121.334 24.3212 122.816 26.5514 123.95C28.8219 125.105 31.1479 125.837 33.647 126.286C36.1081 126.727 38.6187 126.874 41.1073 126.941C42.2499 126.972 43.3925 126.985 44.5356 126.992C45.8924 127 47.249 127 48.6058 127L64.1902 127H75.979L91.5332 126.999C92.8874 126.999 94.2416 127 95.5957 126.992C96.7364 126.985 97.8768 126.972 99.0172 126.941C101.502 126.874 104.009 126.727 106.466 126.285C108.959 125.837 111.279 125.105 113.544 123.951C115.77 122.816 117.807 121.335 119.573 119.567C121.34 117.799 122.82 115.761 123.953 113.533C125.107 111.265 125.838 108.942 126.287 106.445C126.728 103.987 126.874 101.479 126.941 98.9933C126.972 97.8519 126.985 96.7106 126.992 95.569C127.001 94.2138 127 92.8585 127 91.5032C127 91.5032 126.999 76.2234 126.999 75.9488V64.0508C126.999 63.848 127 48.5042 127 48.5042Z" fill="white"/>
</mask>
<g mask="url(#mask0_1171_47829)">
<rect width="114" height="114" transform="translate(13 13)" fill="white"/>
<g filter="url(#filter1_dd_1171_47829)">
<path fill-rule="evenodd" clip-rule="evenodd" d="M46.0699 79.3913H32L53.074 39.0202C53.3083 38.4106 53.9002 38 54.5537 38H67.5385L46.0699 79.3913ZM65.4328 79.3912H51.2511L69.2485 44.938C69.4847 44.3255 70.0813 43.9129 70.74 43.9129H83.828L65.4328 79.3912ZM89.7113 66.9075L106.5 38H93.2965C92.6469 38 92.0598 38.362 91.7724 38.9236L70.4988 79.5389H84.5396L75.1208 106L108.999 66.9075H89.7113Z" fill="#667AE4"/>
</g>
</g>
<path fill-rule="evenodd" clip-rule="evenodd" d="M265.015 103.154C269.055 104.999 273.371 105.912 277.963 105.912C282.575 105.912 286.91 104.999 290.951 103.154C294.991 101.309 298.538 98.7701 301.613 95.5166C304.687 92.263 307.072 88.5135 308.806 84.2283C310.541 79.963 311.408 75.3803 311.408 70.5C311.408 65.6196 310.541 61.0567 308.806 56.7716C307.072 52.5063 304.687 48.7369 301.613 45.4834C298.538 42.2298 294.991 39.6905 290.951 37.8455C286.91 36.0005 282.555 35.0879 277.963 35.0879C273.371 35.0879 269.055 36.0005 265.015 37.8455C260.975 39.6905 257.427 42.2298 254.353 45.4834C251.298 48.7369 248.893 52.4864 247.139 56.7716C245.385 61.0369 244.518 65.6196 244.518 70.5C244.518 75.3803 245.405 79.9432 247.139 84.2283C248.874 88.4937 251.278 92.263 254.353 95.5166C257.427 98.7701 260.975 101.309 265.015 103.154ZM289.709 92.3225C286.181 94.604 282.259 95.7546 277.963 95.7546V95.7348C273.667 95.7348 269.764 94.5841 266.237 92.3225C262.709 90.0609 259.891 86.9859 257.782 83.1571C255.673 79.3282 254.609 75.0629 254.609 70.4801C254.609 65.8974 255.653 61.6717 257.762 57.8429C259.851 54.014 262.669 50.9588 266.217 48.6576C269.745 46.3761 273.667 45.2255 277.963 45.2255C282.259 45.2255 286.162 46.3563 289.689 48.6576C293.217 50.939 296.035 53.9942 298.144 57.823C300.253 61.6321 301.317 65.8974 301.317 70.4801C301.317 75.0629 300.273 79.2885 298.164 83.1174C296.075 86.9661 293.237 90.0212 289.709 92.3225ZM159.93 105.894L159.926 105.914V105.894H159.93ZM159.93 105.894L172.955 37.0568H181.034L198.308 83.4346L215.485 37.0568H223.564L236.652 105.914H226.46L217.754 59.8357L201.634 103.314H194.904L178.824 59.8157L170.118 105.894H159.93ZM321.244 105.914V37.0568H331.081V105.914H321.244ZM395.987 47.2793V37.0568H342.888V47.2793H364.387V105.914H374.429V47.2793H395.987Z" fill="white"/>
<defs>
<filter id="filter0_d_1171_47829" x="11.6322" y="13" width="117.736" height="117.736" filterUnits="userSpaceOnUse" color-interpolation-filters="sRGB">
<feFlood flood-opacity="0" result="BackgroundImageFix"/>
<feColorMatrix in="SourceAlpha" type="matrix" values="0 0 0 0 0 0 0 0 0 0 0 0 0 0 0 0 0 0 127 0" result="hardAlpha"/>
<feOffset dy="1.36785"/>
<feGaussianBlur stdDeviation="0.683923"/>
<feColorMatrix type="matrix" values="0 0 0 0 0 0 0 0 0 0 0 0 0 0 0 0 0 0 0.3 0"/>
<feBlend mode="normal" in2="BackgroundImageFix" result="effect1_dropShadow_1171_47829"/>
<feBlend mode="normal" in="SourceGraphic" in2="effect1_dropShadow_1171_47829" result="shape"/>
</filter>
<filter id="filter1_dd_1171_47829" x="23.7929" y="32.5286" width="93.4141" height="84.4141" filterUnits="userSpaceOnUse" color-interpolation-filters="sRGB">
<feFlood flood-opacity="0" result="BackgroundImageFix"/>
<feColorMatrix in="SourceAlpha" type="matrix" values="0 0 0 0 0 0 0 0 0 0 0 0 0 0 0 0 0 0 127 0" result="hardAlpha"/>
<feOffset dy="2.73569"/>
<feGaussianBlur stdDeviation="4.10354"/>
<feComposite in2="hardAlpha" operator="out"/>
<feColorMatrix type="matrix" values="0 0 0 0 0.4 0 0 0 0 0.478431 0 0 0 0 0.894118 0 0 0 0.3 0"/>
<feBlend mode="normal" in2="BackgroundImageFix" result="effect1_dropShadow_1171_47829"/>
<feColorMatrix in="SourceAlpha" type="matrix" values="0 0 0 0 0 0 0 0 0 0 0 0 0 0 0 0 0 0 127 0" result="hardAlpha"/>
<feOffset dy="0.136785"/>
<feGaussianBlur stdDeviation="0.61553"/>
<feComposite in2="hardAlpha" operator="out"/>
<feColorMatrix type="matrix" values="0 0 0 0 0.4 0 0 0 0 0.478431 0 0 0 0 0.894118 0 0 0 0.5 0"/>
<feBlend mode="normal" in2="effect1_dropShadow_1171_47829" result="effect2_dropShadow_1171_47829"/>
<feBlend mode="normal" in="SourceGraphic" in2="effect2_dropShadow_1171_47829" result="shape"/>
</filter>
</defs>
</svg>
