<svg width="24" height="24" viewBox="0 0 24 24" fill="none" xmlns="http://www.w3.org/2000/svg">
<path d="M12 15.75C12.9946 15.75 13.9484 15.3549 14.6517 14.6517C15.3549 13.9484 15.75 12.9946 15.75 12C15.75 11.0054 15.3549 10.0516 14.6517 9.34835C13.9484 8.64509 12.9946 8.25 12 8.25C11.0054 8.25 10.0516 8.64509 9.34835 9.34835C8.64509 10.0516 8.25 11.0054 8.25 12C8.25 12.9946 8.64509 13.9484 9.34835 14.6517C10.0516 15.3549 11.0054 15.75 12 15.75ZM12.625 2.625C12.625 2.45924 12.5592 2.30027 12.4419 2.18306C12.3247 2.06585 12.1658 2 12 2C11.8342 2 11.6753 2.06585 11.5581 2.18306C11.4408 2.30027 11.375 2.45924 11.375 2.625V4.525C9.60773 4.6728 7.94998 5.44196 6.69597 6.69597C5.44196 7.94998 4.6728 9.60773 4.525 11.375H2.625C2.45924 11.375 2.30027 11.4408 2.18306 11.5581C2.06585 11.6753 2 11.8342 2 12C2 12.1658 2.06585 12.3247 2.18306 12.4419C2.30027 12.5592 2.45924 12.625 2.625 12.625H4.525C4.6728 14.3923 5.44196 16.05 6.69597 17.304C7.94998 18.558 9.60773 19.3272 11.375 19.475V21.375C11.375 21.5408 11.4408 21.6997 11.5581 21.8169C11.6753 21.9342 11.8342 22 12 22C12.1658 22 12.3247 21.9342 12.4419 21.8169C12.5592 21.6997 12.625 21.5408 12.625 21.375V19.475C14.3922 19.327 16.0498 18.5577 17.3038 17.3038C18.5577 16.0498 19.327 14.3922 19.475 12.625H21.375C21.5408 12.625 21.6997 12.5592 21.8169 12.4419C21.9342 12.3247 22 12.1658 22 12C22 11.8342 21.9342 11.6753 21.8169 11.5581C21.6997 11.4408 21.5408 11.375 21.375 11.375H19.475C19.3272 9.60773 18.558 7.94998 17.304 6.69597C16.05 5.44196 14.3923 4.6728 12.625 4.525V2.625ZM12 18.25C10.3424 18.25 8.75269 17.5915 7.58058 16.4194C6.40848 15.2473 5.75 13.6576 5.75 12C5.75 10.3424 6.40848 8.75269 7.58058 7.58058C8.75269 6.40848 10.3424 5.75 12 5.75C13.6576 5.75 15.2473 6.40848 16.4194 7.58058C17.5915 8.75269 18.25 10.3424 18.25 12C18.25 13.6576 17.5915 15.2473 16.4194 16.4194C15.2473 17.5915 13.6576 18.25 12 18.25Z" fill="#4A4A4A"/>
</svg>
