<svg width="28" height="28" viewBox="0 0 28 28" fill="none" xmlns="http://www.w3.org/2000/svg">
<path fill-rule="evenodd" clip-rule="evenodd" d="M16.8008 3.50078C16.8008 3.11418 17.1142 2.80078 17.5008 2.80078H22.1674C22.9719 2.80078 23.7435 3.12036 24.3123 3.68922C24.8812 4.25808 25.2008 5.02962 25.2008 5.83411V22.1674C25.2008 22.9719 24.8812 23.7435 24.3123 24.3123C23.7435 24.8812 22.9719 25.2008 22.1674 25.2008H17.5008C17.1142 25.2008 16.8008 24.8874 16.8008 24.5008C16.8008 24.1142 17.1142 23.8008 17.5008 23.8008H22.1674C22.6006 23.8008 23.0161 23.6287 23.3224 23.3224C23.6287 23.0161 23.8008 22.6006 23.8008 22.1674V5.83411C23.8008 5.40093 23.6287 4.98548 23.3224 4.67917C23.0161 4.37286 22.6006 4.20078 22.1674 4.20078H17.5008C17.1142 4.20078 16.8008 3.88738 16.8008 3.50078Z" fill="#939393"/>
<path fill-rule="evenodd" clip-rule="evenodd" d="M12.1624 7.67182C11.8891 7.39846 11.4458 7.39846 11.1725 7.67182C10.8991 7.94519 10.8991 8.3884 11.1725 8.66177L15.8108 13.3001H3.50078C3.11418 13.3001 2.80078 13.6135 2.80078 14.0001C2.80078 14.3867 3.11418 14.7001 3.50078 14.7001H15.8108L11.1725 19.3385C10.8991 19.6119 10.8991 20.0551 11.1725 20.3284C11.4458 20.6018 11.8891 20.6018 12.1624 20.3284L17.9948 14.496C17.9978 14.4931 18.0008 14.4901 18.0037 14.487C18.0669 14.4218 18.1149 14.3474 18.1477 14.2681C18.1819 14.1855 18.2008 14.095 18.2008 14.0001C18.2008 13.9052 18.1819 13.8147 18.1477 13.7322C18.1149 13.6529 18.0669 13.5784 18.0037 13.5132C18.0008 13.5102 17.9978 13.5072 17.9948 13.5042M12.1624 7.67182L17.9948 13.5042L12.1624 7.67182Z" fill="#939393"/>
</svg>
