<svg width="24" height="24" viewBox="0 0 24 24" fill="none" xmlns="http://www.w3.org/2000/svg">
<path fill-rule="evenodd" clip-rule="evenodd" d="M11.2 3.00002C11.2 2.66865 10.9314 2.40002 10.6 2.40002H6.60001C5.91045 2.40002 5.24913 2.67395 4.76154 3.16155C4.27394 3.64914 4.00001 4.31046 4.00001 5.00002V19C4.00001 19.6896 4.27394 20.3509 4.76154 20.8385C5.24913 21.3261 5.91045 21.6 6.60001 21.6H10.6C10.9314 21.6 11.2 21.3314 11.2 21C11.2 20.6687 10.9314 20.4 10.6 20.4H6.60001C6.22871 20.4 5.87261 20.2525 5.61006 19.99C5.34751 19.7274 5.20001 19.3713 5.20001 19V5.00002C5.20001 4.62872 5.34751 4.27263 5.61006 4.01007C5.87261 3.74752 6.22871 3.60002 6.60001 3.60002H10.6C10.9314 3.60002 11.2 3.3314 11.2 3.00002Z" fill="#939393"/>
<path fill-rule="evenodd" clip-rule="evenodd" d="M16.0243 6.57576C15.7899 6.34145 15.4101 6.34145 15.1757 6.57576C14.9414 6.81007 14.9414 7.18997 15.1757 7.42429L19.1515 11.4H8.6C8.26863 11.4 8 11.6687 8 12C8 12.3314 8.26863 12.6 8.6 12.6H19.1515L15.1757 16.5758C14.9414 16.8101 14.9414 17.19 15.1757 17.4243C15.4101 17.6586 15.7899 17.6586 16.0243 17.4243L21.0235 12.4251C21.026 12.4225 21.0286 12.42 21.0311 12.4174C21.0852 12.3615 21.1264 12.2976 21.1545 12.2297C21.1838 12.1589 21.2 12.0814 21.2 12C21.2 11.9187 21.1838 11.8411 21.1545 11.7704C21.1264 11.7024 21.0852 11.6386 21.0311 11.5827C21.0286 11.5801 21.026 11.5775 21.0235 11.575M16.0243 6.57576L21.0235 11.575L16.0243 6.57576Z" fill="#939393"/>
</svg>
