<svg width="79" height="24" viewBox="0 0 79 24" fill="none" xmlns="http://www.w3.org/2000/svg">
<path fill-rule="evenodd" clip-rule="evenodd" d="M4.70564 14.4866H0L7.04815 1.1038C7.1265 0.901721 7.32446 0.765625 7.54304 0.765625H11.8858L4.70564 14.4866ZM11.0238 14.4866H6.31815L12.2899 3.12048C12.3683 2.91839 12.5662 2.7823 12.7848 2.7823H17.1275L11.0238 14.4866ZM18.9792 10.3171L24.5221 0.765625H20.1628C19.9484 0.765625 19.7546 0.885225 19.6597 1.07081L12.6363 14.4907H17.2718L14.1622 23.2339L25.3469 10.3171H18.9792Z" fill="#667AE4"/>
<path fill-rule="evenodd" clip-rule="evenodd" d="M51.5547 18.6873C52.3832 19.065 53.2683 19.2519 54.2099 19.2519C55.1556 19.2519 56.0448 19.065 56.8732 18.6873C57.7017 18.3095 58.4292 17.7895 59.0597 17.1233C59.6901 16.4571 60.1791 15.6894 60.5348 14.812C60.8904 13.9386 61.0683 13.0002 61.0683 12.001C61.0683 11.0017 60.8904 10.0674 60.5348 9.18994C60.1791 8.31658 59.6901 7.54477 59.0597 6.87857C58.4292 6.21238 57.7017 5.69242 56.8732 5.31464C56.0448 4.93686 55.1516 4.75 54.2099 4.75C53.2683 4.75 52.3832 4.93686 51.5547 5.31464C50.7262 5.69242 49.9988 6.21238 49.3683 6.87857C48.7419 7.54477 48.2488 8.31251 47.8891 9.18994C47.5294 10.0633 47.3516 11.0017 47.3516 12.001C47.3516 13.0002 47.5335 13.9345 47.8891 14.812C48.2448 15.6853 48.7378 16.4571 49.3683 17.1233C49.9988 17.7895 50.7262 18.3095 51.5547 18.6873ZM56.6186 16.4693C55.8952 16.9365 55.091 17.1721 54.2099 17.1721V17.168C53.3289 17.168 52.5287 16.9324 51.8053 16.4693C51.0819 16.0062 50.5039 15.3766 50.0715 14.5926C49.6391 13.8086 49.4208 12.9353 49.4208 11.9969C49.4208 11.0585 49.635 10.1933 50.0675 9.4093C50.4958 8.6253 51.0738 7.99973 51.8012 7.52852C52.5247 7.06137 53.3289 6.82576 54.2099 6.82576C55.091 6.82576 55.8912 7.05731 56.6146 7.52852C57.338 7.99566 57.9159 8.62124 58.3484 9.40523C58.7808 10.1852 58.999 11.0585 58.999 11.9969C58.999 12.9353 58.7849 13.8005 58.3524 14.5845C57.924 15.3725 57.3421 15.9981 56.6186 16.4693ZM30.1805 18.9878L30.1797 18.9919V18.9878H30.1805ZM30.1805 18.9878L32.8713 5.00586H34.5404L38.109 14.426L41.6574 5.00586H43.3265L46.0302 18.9919H43.9246L42.1262 9.63266L38.796 18.4638H37.4058L34.0837 9.6286L32.2853 18.9878H30.1805ZM63.2423 18.9919V5.00586H65.3116V18.9919H63.2423ZM78.5195 7.08162V5.00586H67.5995V7.08162H72.0209V18.9878H74.086V7.08162H78.5195Z" fill="#626262"/>
</svg>
