<svg width="72" height="72" viewBox="0 0 72 72" fill="none" xmlns="http://www.w3.org/2000/svg">
<g filter="url(#filter0_f_1061_43576)">
<ellipse cx="36" cy="60" rx="18" ry="6" fill="#919FE9"/>
</g>
<mask id="path-2-outside-1_1061_43576" maskUnits="userSpaceOnUse" x="13" y="7" width="46" height="55" fill="black">
<rect fill="white" x="13" y="7" width="46" height="55"/>
<path fill-rule="evenodd" clip-rule="evenodd" d="M35.079 59.802L35.07 59.799L35.052 59.79L34.998 59.766L34.812 59.679C33.8109 59.1814 32.8338 58.6368 31.884 58.047C29.4318 56.5257 27.1463 54.751 25.065 52.752C20.094 47.964 15 40.476 15 30C15 27.2422 15.5432 24.5115 16.5985 21.9636C17.6539 19.4158 19.2007 17.1008 21.1508 15.1508C23.1008 13.2007 25.4158 11.6539 27.9636 10.5985C30.5115 9.54318 33.2422 9 36 9C38.7578 9 41.4885 9.54318 44.0363 10.5985C46.5842 11.6539 48.8992 13.2007 50.8492 15.1508C52.7993 17.1008 54.3461 19.4158 55.4015 21.9636C56.4568 24.5115 57 27.2422 57 30C57 40.479 51.906 47.964 46.938 52.752C44.451 55.149 41.976 56.895 40.116 58.047C39.183 58.626 38.403 59.058 37.845 59.346C37.5679 59.4937 37.2868 59.6337 37.002 59.766L36.948 59.79L36.93 59.799L36.924 59.802C36.33 60.06 36 60 36 60C36 60 35.67 60.06 35.079 59.802Z"/>
</mask>
<path fill-rule="evenodd" clip-rule="evenodd" d="M35.079 59.802L35.07 59.799L35.052 59.79L34.998 59.766L34.812 59.679C33.8109 59.1814 32.8338 58.6368 31.884 58.047C29.4318 56.5257 27.1463 54.751 25.065 52.752C20.094 47.964 15 40.476 15 30C15 27.2422 15.5432 24.5115 16.5985 21.9636C17.6539 19.4158 19.2007 17.1008 21.1508 15.1508C23.1008 13.2007 25.4158 11.6539 27.9636 10.5985C30.5115 9.54318 33.2422 9 36 9C38.7578 9 41.4885 9.54318 44.0363 10.5985C46.5842 11.6539 48.8992 13.2007 50.8492 15.1508C52.7993 17.1008 54.3461 19.4158 55.4015 21.9636C56.4568 24.5115 57 27.2422 57 30C57 40.479 51.906 47.964 46.938 52.752C44.451 55.149 41.976 56.895 40.116 58.047C39.183 58.626 38.403 59.058 37.845 59.346C37.5679 59.4937 37.2868 59.6337 37.002 59.766L36.948 59.79L36.93 59.799L36.924 59.802C36.33 60.06 36 60 36 60C36 60 35.67 60.06 35.079 59.802Z" fill="black"/>
<path d="M35.07 59.799L34.4626 61.0138C34.5201 61.0426 34.5797 61.0673 34.6407 61.0876L35.07 59.799ZM35.079 59.802L35.6224 58.5572C35.585 58.5409 35.5469 58.5263 35.5083 58.5134L35.079 59.802ZM35.052 59.79L35.6594 58.5752C35.641 58.566 35.6224 58.5572 35.6036 58.5488L35.052 59.79ZM34.998 59.766L34.4225 60.9963C34.4304 61 34.4384 61.0036 34.4464 61.0072L34.998 59.766ZM34.812 59.679L34.2075 60.8952C34.2171 60.9 34.2268 60.9047 34.2365 60.9093L34.812 59.679ZM31.884 58.047L32.6005 56.8932L32.6 56.8928L31.884 58.047ZM25.065 52.752L24.1228 53.7302L24.1242 53.7316L25.065 52.752ZM16.5985 21.9636L15.3437 21.4439L15.3437 21.4439L16.5985 21.9636ZM21.1508 15.1508L20.1904 14.1904L20.1904 14.1904L21.1508 15.1508ZM27.9636 10.5985L27.4439 9.34371L27.4439 9.34371L27.9636 10.5985ZM44.0363 10.5985L43.5166 11.8534L43.5166 11.8534L44.0363 10.5985ZM50.8492 15.1508L51.8096 14.1904L51.8096 14.1904L50.8492 15.1508ZM55.4015 21.9636L56.6563 21.4439L56.6563 21.4439L55.4015 21.9636ZM46.938 52.752L45.9955 51.774L45.9955 51.7741L46.938 52.752ZM40.116 58.047L39.4008 56.8923L39.3998 56.893L40.116 58.047ZM37.845 59.346L37.2221 58.1391C37.2168 58.1418 37.2115 58.1445 37.2063 58.1473L37.845 59.346ZM37.002 59.766L37.5536 61.0072C37.5605 61.0041 37.5674 61.001 37.5742 60.9978L37.002 59.766ZM36.948 59.79L36.3964 58.5488C36.3776 58.5572 36.359 58.566 36.3406 58.5752L36.948 59.79ZM36.93 59.799L37.5369 61.0141L37.5374 61.0138L36.93 59.799ZM36.924 59.802L37.4651 61.0478C37.4873 61.0381 37.5093 61.0279 37.5309 61.017L36.924 59.802ZM36 60L36.243 58.6637C36.0823 58.6345 35.9177 58.6345 35.757 58.6637L36 60ZM34.6407 61.0876L34.6497 61.0906L35.5083 58.5134L35.4993 58.5104L34.6407 61.0876ZM34.4446 61.0048L34.4626 61.0138L35.6774 58.5842L35.6594 58.5752L34.4446 61.0048ZM34.4464 61.0072L34.5004 61.0312L35.6036 58.5488L35.5496 58.5248L34.4464 61.0072ZM34.2365 60.9093L34.4225 60.9963L35.5735 58.5357L35.3875 58.4487L34.2365 60.9093ZM31.1675 59.2009C32.1536 59.8132 33.168 60.3786 34.2075 60.8952L35.4165 58.4628C34.4537 57.9842 33.514 57.4604 32.6005 56.8932L31.1675 59.2009ZM24.1242 53.7316C26.274 55.7965 28.6349 57.6297 31.168 59.2012L32.6 56.8928C30.2287 55.4217 28.0185 53.7055 26.0058 51.7724L24.1242 53.7316ZM13.6418 30C13.6418 40.9591 18.9812 48.7779 24.1228 53.7302L26.0072 51.7738C21.2068 47.1501 16.3582 39.9929 16.3582 30H13.6418ZM15.3437 21.4439C14.2201 24.1565 13.6418 27.0639 13.6418 30H16.3582C16.3582 27.4206 16.8663 24.8665 17.8534 22.4834L15.3437 21.4439ZM20.1904 14.1904C18.1142 16.2665 16.4673 18.7313 15.3437 21.4439L17.8534 22.4834C18.8404 20.1004 20.2872 17.9351 22.1112 16.1112L20.1904 14.1904ZM27.4439 9.34371C24.7313 10.4673 22.2665 12.1142 20.1904 14.1904L22.1112 16.1112C23.9351 14.2872 26.1004 12.8404 28.4834 11.8534L27.4439 9.34371ZM36 7.64179C33.0639 7.64179 30.1565 8.2201 27.4439 9.34371L28.4834 11.8534C30.8665 10.8663 33.4206 10.3582 36 10.3582V7.64179ZM44.5561 9.34371C41.8435 8.2201 38.9361 7.64179 36 7.64179V10.3582C38.5794 10.3582 41.1335 10.8663 43.5166 11.8534L44.5561 9.34371ZM51.8096 14.1904C49.7335 12.1142 47.2687 10.4673 44.5561 9.34371L43.5166 11.8534C45.8996 12.8404 48.0649 14.2872 49.8888 16.1112L51.8096 14.1904ZM56.6563 21.4439C55.5327 18.7313 53.8858 16.2665 51.8096 14.1904L49.8888 16.1112C51.7128 17.9351 53.1596 20.1004 54.1466 22.4834L56.6563 21.4439ZM58.3582 30C58.3582 27.0639 57.7799 24.1565 56.6563 21.4439L54.1466 22.4834C55.1337 24.8665 55.6418 27.4206 55.6418 30H58.3582ZM47.8805 53.73C53.0188 48.7778 58.3582 40.9621 58.3582 30H55.6418C55.6418 39.9959 50.7932 47.1502 45.9955 51.774L47.8805 53.73ZM40.8312 59.2017C42.7524 58.0118 45.3087 56.2087 47.8805 53.7299L45.9955 51.7741C43.5933 54.0893 41.1996 55.7783 39.4008 56.8923L40.8312 59.2017ZM38.4679 60.5529C39.0579 60.2484 39.869 59.7988 40.8322 59.201L39.3998 56.893C38.497 57.4532 37.7481 57.8676 37.2221 58.1391L38.4679 60.5529ZM37.5742 60.9978C37.8815 60.8551 38.1847 60.704 38.4837 60.5447L37.2063 58.1473C36.951 58.2833 36.6921 58.4124 36.4298 58.5342L37.5742 60.9978ZM37.4996 61.0312L37.5536 61.0072L36.4504 58.5248L36.3964 58.5488L37.4996 61.0312ZM37.5374 61.0138L37.5554 61.0048L36.3406 58.5752L36.3226 58.5842L37.5374 61.0138ZM37.5309 61.017L37.5369 61.0141L36.3231 58.5839L36.3171 58.5869L37.5309 61.017ZM36 60C35.757 61.3363 35.7577 61.3364 35.7584 61.3366C35.7587 61.3366 35.7594 61.3367 35.7598 61.3368C35.7608 61.337 35.7617 61.3371 35.7627 61.3373C35.7646 61.3377 35.7666 61.338 35.7685 61.3383C35.7724 61.339 35.7765 61.3397 35.7806 61.3404C35.7888 61.3417 35.7974 61.3431 35.8064 61.3444C35.8243 61.347 35.8438 61.3496 35.8647 61.3519C35.9065 61.3566 35.954 61.3604 36.0071 61.3625C36.1134 61.3667 36.2409 61.364 36.3878 61.3478C36.6835 61.3153 37.0466 61.2295 37.4651 61.0478L36.3829 58.5562C36.2074 58.6325 36.1085 58.6457 36.0907 58.6477C36.0809 58.6488 36.0887 58.6472 36.1146 58.6482C36.1275 58.6487 36.1446 58.6499 36.166 58.6522C36.1767 58.6534 36.1885 58.6549 36.2013 58.6568C36.2077 58.6578 36.2144 58.6588 36.2213 58.66C36.2248 58.6605 36.2284 58.6611 36.232 58.6617C36.2338 58.6621 36.2356 58.6624 36.2374 58.6627C36.2383 58.6629 36.2393 58.663 36.2402 58.6632C36.2406 58.6633 36.2413 58.6634 36.2416 58.6634C36.2423 58.6636 36.243 58.6637 36 60ZM34.5356 61.0468C34.9534 61.2292 35.3164 61.3151 35.6122 61.3478C35.7592 61.364 35.8867 61.3667 35.993 61.3625C36.0461 61.3604 36.0936 61.3566 36.1354 61.3519C36.1563 61.3496 36.1757 61.347 36.1937 61.3444C36.2026 61.3431 36.2112 61.3417 36.2194 61.3404C36.2236 61.3397 36.2276 61.339 36.2315 61.3383C36.2335 61.338 36.2354 61.3377 36.2373 61.3373C36.2383 61.3371 36.2392 61.337 36.2402 61.3368C36.2406 61.3367 36.2413 61.3366 36.2416 61.3366C36.2423 61.3364 36.243 61.3363 36 60C35.757 58.6637 35.7577 58.6636 35.7584 58.6634C35.7587 58.6634 35.7594 58.6633 35.7598 58.6632C35.7607 58.663 35.7617 58.6629 35.7626 58.6627C35.7644 58.6624 35.7662 58.6621 35.768 58.6617C35.7716 58.6611 35.7752 58.6605 35.7786 58.66C35.7856 58.6588 35.7922 58.6578 35.7986 58.6568C35.8114 58.655 35.8232 58.6535 35.8339 58.6523C35.8553 58.6499 35.8725 58.6487 35.8854 58.6482C35.9114 58.6472 35.9194 58.6488 35.91 58.6477C35.8931 58.6459 35.7956 58.6328 35.6224 58.5572L34.5356 61.0468Z" fill="#667AE4" mask="url(#path-2-outside-1_1061_43576)"/>
<path fill-rule="evenodd" clip-rule="evenodd" d="M26.4818 35.6087H21L29.2106 21.3601C29.3019 21.1449 29.5325 21 29.7872 21H34.8462L26.4818 35.6087ZM34.0254 35.6087H28.5L35.512 23.4488C35.604 23.2326 35.8365 23.087 36.0931 23.087H41.1923L34.0254 35.6087ZM43.4854 31.2026L50.0266 21H44.8822C44.6291 21 44.4004 21.1278 44.2885 21.326L36 35.6608H41.4705L37.8008 45L51 31.2026H43.4854Z" fill="#919FE9"/>
<defs>
<filter id="filter0_f_1061_43576" x="12.5672" y="48.5672" width="46.8657" height="22.8657" filterUnits="userSpaceOnUse" color-interpolation-filters="sRGB">
<feFlood flood-opacity="0" result="BackgroundImageFix"/>
<feBlend mode="normal" in="SourceGraphic" in2="BackgroundImageFix" result="shape"/>
<feGaussianBlur stdDeviation="2.71642" result="effect1_foregroundBlur_1061_43576"/>
</filter>
</defs>
</svg>
