<svg width="41" height="47" viewBox="0 0 41 47" fill="none" xmlns="http://www.w3.org/2000/svg">
<path fill-rule="evenodd" clip-rule="evenodd" d="M23.4635 40.5134C33.2487 39.0243 40.7463 30.5743 40.7463 20.3731C40.7463 9.12136 31.6249 0 20.3731 0C9.12136 0 0 9.12136 0 20.3731C0 30.5743 7.49752 39.0243 17.2827 40.5134L20.3731 46.1791L23.4635 40.5134Z" fill="#3C57E3"/>
<path fill-rule="evenodd" clip-rule="evenodd" d="M11.5807 25.3523H6.83594L13.9427 12.5005C14.0217 12.3065 14.2213 12.1758 14.4417 12.1758H18.8206L11.5807 25.3523ZM18.1124 25.3534H13.3299L19.3992 14.3856C19.4788 14.1906 19.68 14.0592 19.9021 14.0592H24.3158L18.1124 25.3534ZM26.2975 21.3782L31.9593 12.1758H27.5066C27.2875 12.1758 27.0895 12.291 26.9926 12.4698L19.8185 25.3992H24.5535L21.3772 33.8228L32.8018 21.3782H26.2975Z" fill="white"/>
</svg>
