<svg width="63" height="72" viewBox="0 0 63 72" fill="none" xmlns="http://www.w3.org/2000/svg">
<mask id="path-1-inside-1_1171_45496" fill="white">
<path fill-rule="evenodd" clip-rule="evenodd" d="M35.899 62.5137C50.7885 60.2468 62.1966 47.3886 62.1966 31.8659C62.1966 14.7436 48.3163 0.863281 31.194 0.863281C14.0717 0.863281 0.191406 14.7436 0.191406 31.8659C0.191406 47.3898 11.6013 60.2488 26.4925 62.5143L31.1956 71.1367L35.899 62.5137Z"/>
</mask>
<path fill-rule="evenodd" clip-rule="evenodd" d="M35.899 62.5137C50.7885 60.2468 62.1966 47.3886 62.1966 31.8659C62.1966 14.7436 48.3163 0.863281 31.194 0.863281C14.0717 0.863281 0.191406 14.7436 0.191406 31.8659C0.191406 47.3898 11.6013 60.2488 26.4925 62.5143L31.1956 71.1367L35.899 62.5137Z" fill="white"/>
<path d="M35.899 62.5137L35.5879 60.4705L34.5751 60.6247L34.0846 61.524L35.899 62.5137ZM26.4925 62.5143L28.3069 61.5246L27.8163 60.6251L26.8033 60.4709L26.4925 62.5143ZM31.1956 71.1367L29.3811 72.1264L31.1956 75.453L33.0101 72.1264L31.1956 71.1367ZM60.1298 31.8659C60.1298 46.3519 49.4829 58.3549 35.5879 60.4705L36.2101 64.557C52.094 62.1387 64.2634 48.4253 64.2634 31.8659H60.1298ZM31.194 2.93012C47.1748 2.93012 60.1298 15.8851 60.1298 31.8659H64.2634C64.2634 13.6021 49.4577 -1.20356 31.194 -1.20356V2.93012ZM2.25825 31.8659C2.25825 15.8851 15.2132 2.93012 31.194 2.93012V-1.20356C12.9303 -1.20356 -1.87543 13.6021 -1.87543 31.8659H2.25825ZM26.8033 60.4709C12.9067 58.3568 2.25825 46.353 2.25825 31.8659H-1.87543C-1.87543 48.4266 10.2959 62.1409 26.1816 64.5576L26.8033 60.4709ZM33.0101 70.147L28.3069 61.5246L24.678 63.504L29.3811 72.1264L33.0101 70.147ZM34.0846 61.524L29.3811 70.147L33.0101 72.1264L37.7135 63.5035L34.0846 61.524Z" fill="#3C57E3" mask="url(#path-1-inside-1_1171_45496)"/>
<path fill-rule="evenodd" clip-rule="evenodd" d="M17.6148 39.5824H10.3945L21.2092 20.0254C21.3294 19.7301 21.6332 19.5312 21.9685 19.5312H28.632L17.6148 39.5824ZM27.5517 39.5831H20.2739L29.5098 22.893C29.631 22.5962 29.9372 22.3964 30.2752 22.3964H36.9916L27.5517 39.5831ZM40.0128 33.5349L48.6285 19.5312H41.8526C41.5192 19.5312 41.2179 19.7066 41.0705 19.9787L30.1534 39.6539H37.3588L32.5253 52.4724L49.9106 33.5349H40.0128Z" fill="#3C57E3"/>
</svg>
