<svg width="52" height="52" viewBox="0 0 52 52" fill="none" xmlns="http://www.w3.org/2000/svg">
<mask id="path-1-outside-1_1061_43580" maskUnits="userSpaceOnUse" x="8.83334" y="4.5" width="34" height="41" fill="black">
<rect fill="white" x="8.83334" y="4.5" width="34" height="41"/>
<path fill-rule="evenodd" clip-rule="evenodd" d="M25.3348 43.1903L25.3283 43.1882L25.3153 43.1817L25.2763 43.1643L25.142 43.1015C24.419 42.7421 23.7133 42.3488 23.0273 41.9228C21.2563 40.8241 19.6056 39.5424 18.1025 38.0987C14.5123 34.6407 10.8333 29.2327 10.8333 21.6667C10.8333 19.675 11.2256 17.7027 11.9878 15.8626C12.75 14.0225 13.8672 12.3506 15.2756 10.9422C16.6839 9.53386 18.3559 8.41669 20.196 7.65449C22.0361 6.8923 24.0083 6.5 26 6.5C27.9917 6.5 29.9639 6.8923 31.804 7.65449C33.6441 8.41669 35.3161 9.53386 36.7245 10.9422C38.1328 12.3506 39.25 14.0225 40.0122 15.8626C40.7744 17.7027 41.1667 19.675 41.1667 21.6667C41.1667 29.2348 37.4877 34.6407 33.8997 38.0987C32.1035 39.8298 30.316 41.0908 28.9727 41.9228C28.2988 42.341 27.7355 42.653 27.3325 42.861C27.1324 42.9676 26.9293 43.0688 26.7237 43.1643L26.6847 43.1817L26.6717 43.1882L26.6673 43.1903C26.2383 43.3767 26 43.3333 26 43.3333C26 43.3333 25.7617 43.3767 25.3348 43.1903Z"/>
</mask>
<path fill-rule="evenodd" clip-rule="evenodd" d="M25.3348 43.1903L25.3283 43.1882L25.3153 43.1817L25.2763 43.1643L25.142 43.1015C24.419 42.7421 23.7133 42.3488 23.0273 41.9228C21.2563 40.8241 19.6056 39.5424 18.1025 38.0987C14.5123 34.6407 10.8333 29.2327 10.8333 21.6667C10.8333 19.675 11.2256 17.7027 11.9878 15.8626C12.75 14.0225 13.8672 12.3506 15.2756 10.9422C16.6839 9.53386 18.3559 8.41669 20.196 7.65449C22.0361 6.8923 24.0083 6.5 26 6.5C27.9917 6.5 29.9639 6.8923 31.804 7.65449C33.6441 8.41669 35.3161 9.53386 36.7245 10.9422C38.1328 12.3506 39.25 14.0225 40.0122 15.8626C40.7744 17.7027 41.1667 19.675 41.1667 21.6667C41.1667 29.2348 37.4877 34.6407 33.8997 38.0987C32.1035 39.8298 30.316 41.0908 28.9727 41.9228C28.2988 42.341 27.7355 42.653 27.3325 42.861C27.1324 42.9676 26.9293 43.0688 26.7237 43.1643L26.6847 43.1817L26.6717 43.1882L26.6673 43.1903C26.2383 43.3767 26 43.3333 26 43.3333C26 43.3333 25.7617 43.3767 25.3348 43.1903Z" fill="black"/>
<path d="M25.3283 43.1882L24.7209 44.403C24.7786 44.4318 24.8383 44.4565 24.8995 44.4769L25.3283 43.1882ZM25.3348 43.1903L25.8783 41.9456C25.8407 41.9292 25.8025 41.9145 25.7637 41.9016L25.3348 43.1903ZM25.3153 43.1817L25.9228 41.9668C25.9044 41.9577 25.8858 41.9489 25.867 41.9405L25.3153 43.1817ZM25.2763 43.1643L24.7009 44.3946C24.7088 44.3983 24.7167 44.4019 24.7247 44.4055L25.2763 43.1643ZM25.142 43.1015L24.5375 44.3177C24.5471 44.3225 24.5568 44.3272 24.5665 44.3318L25.142 43.1015ZM23.0273 41.9228L23.7438 40.769L23.7433 40.7687L23.0273 41.9228ZM18.1025 38.0987L17.1603 39.0769L17.1617 39.0782L18.1025 38.0987ZM11.9878 15.8626L10.733 15.3429L10.733 15.3429L11.9878 15.8626ZM15.2756 10.9422L14.3152 9.98181L14.3152 9.98181L15.2756 10.9422ZM20.196 7.65449L20.7157 8.90932L20.196 7.65449ZM31.804 7.65449L31.2843 8.90931V8.90932L31.804 7.65449ZM36.7245 10.9422L37.6849 9.98181V9.98181L36.7245 10.9422ZM40.0122 15.8626L41.267 15.3429L40.0122 15.8626ZM33.8997 38.0987L32.9572 37.1207L32.9571 37.1207L33.8997 38.0987ZM28.9727 41.9228L28.2575 40.7682L28.2565 40.7688L28.9727 41.9228ZM27.3325 42.861L26.7096 41.6541C26.7043 41.6568 26.699 41.6595 26.6938 41.6623L27.3325 42.861ZM26.7237 43.1643L27.2753 44.4055C27.2822 44.4024 27.2891 44.3993 27.2959 44.3961L26.7237 43.1643ZM26.6847 43.1817L26.133 41.9405C26.1142 41.9489 26.0956 41.9577 26.0772 41.9669L26.6847 43.1817ZM26.6717 43.1882L27.278 44.4035L27.2792 44.403L26.6717 43.1882ZM26.6673 43.1903L27.2084 44.4361C27.2305 44.4265 27.2522 44.4164 27.2737 44.4057L26.6673 43.1903ZM26 43.3333L26.243 41.997C26.0823 41.9678 25.9177 41.9678 25.757 41.997L26 43.3333ZM24.8995 44.4769L24.906 44.4791L25.7637 41.9016L25.7572 41.8994L24.8995 44.4769ZM24.7079 44.3965L24.7209 44.403L25.9358 41.9733L25.9228 41.9668L24.7079 44.3965ZM24.7247 44.4055L24.7637 44.4228L25.867 41.9405L25.828 41.9232L24.7247 44.4055ZM24.5665 44.3318L24.7009 44.3946L25.8518 41.9341L25.7175 41.8712L24.5665 44.3318ZM22.3109 43.0767C23.0331 43.5252 23.7761 43.9393 24.5375 44.3177L25.7466 41.8853C25.0618 41.5449 24.3935 41.1724 23.7438 40.769L22.3109 43.0767ZM17.1617 39.0782C18.7334 40.5878 20.4595 41.9281 22.3113 43.077L23.7433 40.7687C22.0532 39.7201 20.4779 38.4969 19.0434 37.1191L17.1617 39.0782ZM9.47513 21.6667C9.47513 29.7158 13.3995 35.4546 17.1603 39.0769L19.0447 37.1204C15.6252 33.8267 12.1916 28.7496 12.1916 21.6667H9.47513ZM10.733 15.3429C9.90256 17.3478 9.47513 19.4966 9.47513 21.6667H12.1916C12.1916 19.8533 12.5487 18.0577 13.2427 16.3824L10.733 15.3429ZM14.3152 9.98181C12.7807 11.5163 11.5635 13.338 10.733 15.3429L13.2427 16.3824C13.9366 14.7071 14.9537 13.1848 16.236 11.9026L14.3152 9.98181ZM19.6762 6.39967C17.6713 7.23012 15.8496 8.44734 14.3152 9.98181L16.236 11.9026C17.5182 10.6204 19.0404 9.60326 20.7157 8.90932L19.6762 6.39967ZM26 5.14179C23.8299 5.14179 21.6811 5.56922 19.6762 6.39967L20.7157 8.90932C22.3911 8.21538 24.1867 7.85821 26 7.85821V5.14179ZM32.3238 6.39967C30.3189 5.56922 28.1701 5.14179 26 5.14179V7.85821C27.8134 7.85821 29.609 8.21538 31.2843 8.90931L32.3238 6.39967ZM37.6849 9.98181C36.1504 8.44734 34.3287 7.23012 32.3238 6.39967L31.2843 8.90932C32.9596 9.60325 34.4818 10.6204 35.7641 11.9026L37.6849 9.98181ZM41.267 15.3429C40.4366 13.338 39.2193 11.5163 37.6849 9.98181L35.7641 11.9026C37.0463 13.1848 38.0634 14.7071 38.7574 16.3824L41.267 15.3429ZM42.5249 21.6667C42.5249 19.4966 42.0975 17.3478 41.267 15.3429L38.7574 16.3824C39.4513 18.0577 39.8085 19.8533 39.8085 21.6667H42.5249ZM34.8422 39.0766C38.6005 35.4545 42.5249 29.718 42.5249 21.6667H39.8085C39.8085 28.7517 36.3749 33.8268 32.9572 37.1207L34.8422 39.0766ZM29.6878 43.0775C31.0924 42.2076 32.9612 40.8895 34.8422 39.0766L32.9571 37.1207C31.2458 38.7701 29.5396 39.9741 28.2575 40.7682L29.6878 43.0775ZM27.9554 44.0679C28.3904 43.8434 28.9848 43.5138 29.6889 43.0769L28.2565 40.7688C27.6128 41.1682 27.0806 41.4626 26.7096 41.6541L27.9554 44.0679ZM27.2959 44.3961C27.524 44.2901 27.7492 44.1779 27.9712 44.0597L26.6938 41.6623C26.5155 41.7573 26.3347 41.8474 26.1515 41.9325L27.2959 44.3961ZM27.2363 44.4228L27.2753 44.4055L26.172 41.9232L26.133 41.9405L27.2363 44.4228ZM27.2792 44.403L27.2922 44.3965L26.0772 41.9669L26.0642 41.9734L27.2792 44.403ZM27.2737 44.4057L27.278 44.4035L26.0653 41.9728L26.061 41.975L27.2737 44.4057ZM26 43.3333C25.757 44.6696 25.7577 44.6698 25.7584 44.6699C25.7587 44.6699 25.7594 44.6701 25.7599 44.6701C25.7608 44.6703 25.7617 44.6705 25.7627 44.6706C25.7646 44.671 25.7665 44.6713 25.7685 44.6717C25.7723 44.6723 25.7763 44.673 25.7803 44.6737C25.7884 44.675 25.7967 44.6763 25.8053 44.6776C25.8226 44.6801 25.8409 44.6825 25.8604 44.6847C25.8994 44.689 25.9427 44.6925 25.9902 44.6943C26.0853 44.6981 26.1962 44.6955 26.3214 44.6818C26.5735 44.654 26.8724 44.582 27.2084 44.4361L26.1262 41.9446C26.0333 41.985 25.9985 41.9845 26.0242 41.9816C26.0362 41.9803 26.0607 41.9786 26.0977 41.98C26.1162 41.9808 26.1375 41.9823 26.1618 41.985C26.1739 41.9864 26.1867 41.988 26.2003 41.99C26.207 41.991 26.214 41.9921 26.2211 41.9932C26.2247 41.9938 26.2283 41.9944 26.2319 41.9951C26.2337 41.9954 26.2356 41.9957 26.2374 41.996C26.2383 41.9962 26.2393 41.9964 26.2402 41.9965C26.2407 41.9966 26.2414 41.9967 26.2416 41.9968C26.2423 41.9969 26.243 41.997 26 43.3333ZM24.7914 44.4351C25.1272 44.5817 25.4262 44.6539 25.6786 44.6817C25.8038 44.6955 25.9148 44.6981 26.0099 44.6943C26.0574 44.6924 26.1007 44.689 26.1397 44.6846C26.1592 44.6825 26.1775 44.6801 26.1947 44.6775C26.2034 44.6763 26.2117 44.675 26.2197 44.6737C26.2237 44.673 26.2277 44.6723 26.2316 44.6717C26.2335 44.6713 26.2354 44.671 26.2373 44.6706C26.2383 44.6705 26.2392 44.6703 26.2402 44.6701C26.2406 44.6701 26.2413 44.6699 26.2416 44.6699C26.2423 44.6698 26.243 44.6696 26 43.3333C25.757 41.997 25.7577 41.9969 25.7584 41.9968C25.7587 41.9967 25.7594 41.9966 25.7598 41.9965C25.7608 41.9964 25.7617 41.9962 25.7626 41.996C25.7644 41.9957 25.7663 41.9954 25.7681 41.9951C25.7717 41.9944 25.7753 41.9938 25.7789 41.9932C25.786 41.9921 25.7929 41.991 25.7997 41.99C25.8132 41.988 25.8261 41.9864 25.8382 41.985C25.8624 41.9823 25.8838 41.9808 25.9023 41.98C25.9394 41.9786 25.9641 41.9803 25.9764 41.9817C26.0029 41.9846 25.9694 41.9853 25.8783 41.9456L24.7914 44.4351Z" fill="white" mask="url(#path-1-outside-1_1061_43580)"/>
<path fill-rule="evenodd" clip-rule="evenodd" d="M19.1257 25.7174H15.1667L21.0966 15.4267C21.1625 15.2713 21.329 15.1667 21.5129 15.1667H25.1667L19.1257 25.7174ZM24.5738 25.7174H20.5833L25.6475 16.9352C25.714 16.7791 25.8819 16.6739 26.0672 16.6739H29.75L24.5738 25.7174ZM31.4061 22.5352L36.1303 15.1667H32.4149C32.2321 15.1667 32.0669 15.2589 31.9861 15.4021L26 25.755H29.9509L27.3006 32.5L36.8333 22.5352H31.4061Z" fill="white"/>
</svg>
