<svg width="32" height="32" viewBox="0 0 32 32" fill="none" xmlns="http://www.w3.org/2000/svg">
<path fill-rule="evenodd" clip-rule="evenodd" d="M10.8339 10.834C11.057 10.6109 11.4188 10.6109 11.642 10.834L15.9998 15.1919L20.3577 10.834C20.5808 10.6109 20.9426 10.6109 21.1658 10.834C21.389 11.0572 21.389 11.419 21.1658 11.6421L16.808 16L21.1658 20.3578C21.389 20.581 21.389 20.9428 21.1658 21.166C20.9426 21.3891 20.5808 21.3891 20.3577 21.166L15.9998 16.8081L11.642 21.166C11.4188 21.3891 11.057 21.3891 10.8339 21.166C10.6107 20.9428 10.6107 20.581 10.8339 20.3578L15.1917 16L10.8339 11.6421C10.6107 11.419 10.6107 11.0572 10.8339 10.834Z" fill="#939393"/>
</svg>
