<svg width="32" height="32" viewBox="0 0 32 32" fill="none" xmlns="http://www.w3.org/2000/svg">
<path d="M16 0.25C12.8849 0.25 9.83985 1.17372 7.24977 2.90435C4.6597 4.63498 2.64098 7.0948 1.4489 9.97273C0.256824 12.8507 -0.0550782 16.0175 0.552639 19.0727C1.16036 22.1279 2.6604 24.9342 4.86307 27.1369C7.06575 29.3396 9.87213 30.8396 12.9273 31.4474C15.9825 32.0551 19.1493 31.7432 22.0273 30.5511C24.9052 29.359 27.365 27.3403 29.0956 24.7502C30.8263 22.1602 31.75 19.1151 31.75 16C31.7448 11.8244 30.0837 7.82139 27.1312 4.86882C24.1786 1.91625 20.1756 0.25521 16 0.25ZM22.0577 17.2115H17.2115V22.0577C17.2115 22.379 17.0839 22.6872 16.8567 22.9144C16.6295 23.1416 16.3213 23.2692 16 23.2692C15.6787 23.2692 15.3705 23.1416 15.1433 22.9144C14.9161 22.6872 14.7885 22.379 14.7885 22.0577V17.2115H9.94231C9.62099 17.2115 9.31283 17.0839 9.08563 16.8567C8.85842 16.6295 8.73077 16.3213 8.73077 16C8.73077 15.6787 8.85842 15.3705 9.08563 15.1433C9.31283 14.9161 9.62099 14.7885 9.94231 14.7885H14.7885V9.94231C14.7885 9.62099 14.9161 9.31283 15.1433 9.08562C15.3705 8.85841 15.6787 8.73077 16 8.73077C16.3213 8.73077 16.6295 8.85841 16.8567 9.08562C17.0839 9.31283 17.2115 9.62099 17.2115 9.94231V14.7885H22.0577C22.379 14.7885 22.6872 14.9161 22.9144 15.1433C23.1416 15.3705 23.2692 15.6787 23.2692 16C23.2692 16.3213 23.1416 16.6295 22.9144 16.8567C22.6872 17.0839 22.379 17.2115 22.0577 17.2115Z" fill="#667AE4"/>
</svg>
