<svg width="14" height="14" viewBox="0 0 14 14" fill="none" xmlns="http://www.w3.org/2000/svg">
<path fill-rule="evenodd" clip-rule="evenodd" d="M6.854 2.91666C7.09563 2.91666 7.2915 3.11253 7.2915 3.35416V6.41666H10.354C10.5956 6.41666 10.7915 6.61253 10.7915 6.85416C10.7915 7.09578 10.5956 7.29166 10.354 7.29166H6.854C6.61238 7.29166 6.4165 7.09578 6.4165 6.85416V3.35416C6.4165 3.11253 6.61238 2.91666 6.854 2.91666Z" fill="#939393"/>
<path fill-rule="evenodd" clip-rule="evenodd" d="M1.1665 6.99999C1.1665 3.77825 3.77809 1.16666 6.99984 1.16666C10.2216 1.16666 12.8332 3.77825 12.8332 6.99999C12.8332 10.2217 10.2216 12.8333 6.99984 12.8333C3.77809 12.8333 1.1665 10.2217 1.1665 6.99999ZM6.99984 1.98061C4.22763 1.98061 1.98046 4.22778 1.98046 6.99999C1.98046 9.7722 4.22763 12.0194 6.99984 12.0194C9.77205 12.0194 12.0192 9.7722 12.0192 6.99999C12.0192 4.22778 9.77205 1.98061 6.99984 1.98061Z" fill="#939393"/>
</svg>
