<svg width="32" height="32" viewBox="0 0 32 32" fill="none" xmlns="http://www.w3.org/2000/svg">
<path fill-rule="evenodd" clip-rule="evenodd" d="M10.6667 1.66667C11.219 1.66667 11.6667 2.11439 11.6667 2.66667V4.33334H20.3333V2.66667C20.3333 2.11439 20.781 1.66667 21.3333 1.66667C21.8856 1.66667 22.3333 2.11439 22.3333 2.66667V4.33334H25.3333C27.3584 4.33334 29 5.97496 29 8.00001V13.3333V26.6667C29 28.6917 27.3584 30.3333 25.3333 30.3333H6.66667C4.64162 30.3333 3 28.6917 3 26.6667V13.3333V8.00001C3 5.97496 4.64162 4.33334 6.66667 4.33334H9.66667V2.66667C9.66667 2.11439 10.1144 1.66667 10.6667 1.66667ZM5 14.3333V26.6667C5 27.5871 5.74619 28.3333 6.66667 28.3333H25.3333C26.2538 28.3333 27 27.5871 27 26.6667V14.3333H5ZM27 12.3333H5V8.00001C5 7.07953 5.74619 6.33334 6.66667 6.33334H9.66667V8.00001C9.66667 8.55229 10.1144 9.00001 10.6667 9.00001C11.219 9.00001 11.6667 8.55229 11.6667 8.00001V6.33334H20.3333V8.00001C20.3333 8.55229 20.781 9.00001 21.3333 9.00001C21.8856 9.00001 22.3333 8.55229 22.3333 8.00001V6.33334H25.3333C26.2538 6.33334 27 7.07953 27 8.00001V12.3333Z" fill="#939393"/>
</svg>
