<svg width="24" height="24" viewBox="0 0 24 24" fill="none" xmlns="http://www.w3.org/2000/svg">
<path fill-rule="evenodd" clip-rule="evenodd" d="M20 12C20 16.4183 16.4183 20 12 20C7.58172 20 4 16.4183 4 12C4 7.58172 7.58172 4 12 4C16.4183 4 20 7.58172 20 12ZM12 8.46509C12.3083 8.46509 12.5581 8.71498 12.5581 9.02323V12C12.5581 12.3082 12.3083 12.5581 12 12.5581C11.6918 12.5581 11.4419 12.3082 11.4419 12V9.02323C11.4419 8.71498 11.6918 8.46509 12 8.46509ZM12 14.2325C11.589 14.2325 11.2558 14.5657 11.2558 14.9767C11.2558 15.3877 11.589 15.7209 12 15.7209H12.0074C12.4184 15.7209 12.7516 15.3877 12.7516 14.9767C12.7516 14.5657 12.4184 14.2325 12.0074 14.2325H12Z" fill="#FF3257"/>
</svg>
