<svg width="14" height="11" viewBox="0 0 14 11" fill="none" xmlns="http://www.w3.org/2000/svg">
<path d="M9.66667 9.33332V10.6667H0.333334V9.33332C0.333334 9.33332 0.333334 6.66665 5 6.66665C9.66667 6.66665 9.66667 9.33332 9.66667 9.33332ZM7.33333 2.99998C7.33333 2.53849 7.19649 2.08737 6.9401 1.70365C6.68371 1.31994 6.31929 1.02087 5.89293 0.844265C5.46657 0.667661 4.99741 0.621453 4.54479 0.711485C4.09217 0.801517 3.67641 1.02375 3.35009 1.35007C3.02376 1.67639 2.80153 2.09215 2.7115 2.54477C2.62147 2.9974 2.66768 3.46655 2.84428 3.89291C3.02089 4.31927 3.31996 4.68369 3.70367 4.94008C4.08738 5.19647 4.53851 5.33332 5 5.33332C5.61884 5.33332 6.21233 5.08748 6.64992 4.6499C7.0875 4.21231 7.33333 3.61882 7.33333 2.99998ZM9.62667 6.66665C10.0365 6.98382 10.3718 7.38694 10.6091 7.84766C10.8464 8.30837 10.9798 8.81549 11 9.33332V10.6667H13.6667V9.33332C13.6667 9.33332 13.6667 6.91332 9.62667 6.66665ZM9 0.666651C8.54119 0.664516 8.09253 0.801671 7.71333 1.05998C8.1183 1.62581 8.33604 2.30417 8.33604 2.99998C8.33604 3.69579 8.1183 4.37416 7.71333 4.93998C8.09253 5.1983 8.54119 5.33545 9 5.33332C9.61884 5.33332 10.2123 5.08748 10.6499 4.6499C11.0875 4.21231 11.3333 3.61882 11.3333 2.99998C11.3333 2.38115 11.0875 1.78765 10.6499 1.35007C10.2123 0.912483 9.61884 0.666651 9 0.666651Z" fill="#8393E7"/>
</svg>
