<svg width="54" height="54" viewBox="0 0 54 54" fill="none" xmlns="http://www.w3.org/2000/svg">
<path fill-rule="evenodd" clip-rule="evenodd" d="M53.6663 26.9999C53.6663 41.7275 41.7273 53.6666 26.9997 53.6666C12.2721 53.6666 0.333008 41.7275 0.333008 26.9999C0.333008 12.2723 12.2721 0.333252 26.9997 0.333252C41.7273 0.333252 53.6663 12.2723 53.6663 26.9999ZM26.9997 15.2169C28.0272 15.2169 28.8602 16.0498 28.8602 17.0773V26.9998C28.8602 28.0273 28.0272 28.8603 26.9997 28.8603C25.9722 28.8603 25.1392 28.0273 25.1392 26.9998V17.0773C25.1392 16.0498 25.9722 15.2169 26.9997 15.2169ZM26.9997 34.4417C25.6297 34.4417 24.5191 35.5523 24.5191 36.9224C24.5191 38.2924 25.6297 39.403 26.9997 39.403H27.0245C28.3945 39.403 29.5051 38.2924 29.5051 36.9224C29.5051 35.5523 28.3945 34.4417 27.0245 34.4417H26.9997Z" fill="#DDDDDD"/>
</svg>
