<svg width="80" height="48" viewBox="0 0 80 48" fill="none" xmlns="http://www.w3.org/2000/svg">
<path fill-rule="evenodd" clip-rule="evenodd" d="M37.334 10.0007C37.334 8.1597 38.8264 6.66732 40.6673 6.66732C42.5083 6.66732 44.0007 8.1597 44.0007 10.0007C44.0007 11.8416 42.5083 13.334 40.6673 13.334C38.8264 13.334 37.334 11.8416 37.334 10.0007ZM40.6673 5.33398C38.09 5.33398 36.0007 7.42332 36.0007 10.0007C36.0007 12.578 38.09 14.6673 40.6673 14.6673C43.2446 14.6673 45.334 12.578 45.334 10.0007C45.334 7.42332 43.2446 5.33398 40.6673 5.33398ZM32.0342 21.3675C32.9093 20.4923 34.0963 20.0006 35.334 20.0006H46.0007C47.2383 20.0006 48.4253 20.4923 49.3005 21.3675C50.1756 22.2427 50.6673 23.4296 50.6673 24.6673C50.6673 25.1977 50.4566 25.7065 50.0815 26.0815C49.7065 26.4566 49.1977 26.6673 48.6673 26.6673H32.6673C32.1369 26.6673 31.6282 26.4566 31.2531 26.0815C30.878 25.7065 30.6673 25.1978 30.6673 24.6673C30.6673 23.4296 31.159 22.2427 32.0342 21.3675ZM35.334 18.6673C33.7427 18.6673 32.2166 19.2995 31.0913 20.4247C29.9661 21.5499 29.334 23.076 29.334 24.6673C29.334 25.5514 29.6852 26.3992 30.3103 27.0243C30.9354 27.6495 31.7833 28.0007 32.6673 28.0007H48.6673C49.5514 28.0007 50.3992 27.6495 51.0243 27.0243C51.6495 26.3992 52.0007 25.5514 52.0007 24.6673C52.0007 23.076 51.3685 21.5499 50.2433 20.4247C49.1181 19.2995 47.5919 18.6673 46.0007 18.6673H35.334Z" fill="#ACACAC"/>
<path d="M20.1953 35.5391V42.3594H15.2852V35.5391H20.1953ZM16.375 36.418V41.457H19.0938V36.418H16.375ZM23.0664 34.4961V38.6094H24.7539V39.5469H23.0664V44.9961H21.9531V34.4961H23.0664ZM33.6331 34.4961V45.0195H32.5198V34.4961H33.6331ZM28.0198 35.2812C29.5784 35.2812 30.7269 36.7109 30.7269 38.9609C30.7269 41.2227 29.5784 42.6523 28.0198 42.6523C26.4378 42.6523 25.3011 41.2227 25.3011 38.9609C25.3011 36.7109 26.4378 35.2812 28.0198 35.2812ZM28.0198 36.2773C27.0472 36.2773 26.3792 37.3086 26.3792 38.9609C26.3792 40.625 27.0472 41.6562 28.0198 41.6562C28.9808 41.6562 29.6488 40.625 29.6488 38.9609C29.6488 37.3086 28.9808 36.2773 28.0198 36.2773ZM44.0709 34.4961V44.9961H43.0045V34.4961H44.0709ZM41.9967 34.7305V44.457H40.942V39.4297H39.6295V38.4336H40.942V34.7305H41.9967ZM39.9108 35.7852V36.6992H39.1022V41.3867C39.4596 41.3633 39.8053 41.3223 40.1217 41.2812L40.2038 42.0898C38.5397 42.418 36.36 42.4648 35.0006 42.4648L34.8717 41.5273L35.903 41.5156V36.6992H35.0944V35.7852H39.9108ZM36.9108 41.5039C37.2916 41.4922 37.6842 41.4805 38.0709 41.457V36.6992H36.9108V41.5039ZM53.7353 34.4961V45.0195H52.622V34.4961H53.7353ZM48.122 35.2812C49.6806 35.2812 50.8291 36.7109 50.8291 38.9609C50.8291 41.2227 49.6806 42.6523 48.122 42.6523C46.54 42.6523 45.4033 41.2227 45.4033 38.9609C45.4033 36.7109 46.54 35.2812 48.122 35.2812ZM48.122 36.2773C47.1494 36.2773 46.4814 37.3086 46.4814 38.9609C46.4814 40.625 47.1494 41.6562 48.122 41.6562C49.083 41.6562 49.7509 40.625 49.7509 38.9609C49.7509 37.3086 49.083 36.2773 48.122 36.2773ZM58.9583 37.5898C58.9583 39.3477 60.1067 41.1641 61.7239 41.8555L61.1145 42.7227C59.8782 42.1777 58.8938 41.0234 58.4075 39.6172C57.9212 41.1172 56.9309 42.3945 55.7122 42.9922L55.0677 42.1133C56.6497 41.375 57.8216 39.3945 57.8333 37.5898V36.4766H55.4309V35.5508H61.3489V36.4766H58.9583V37.5898ZM63.7864 34.4961V44.9961H62.6731V34.4961H63.7864Z" fill="#ACACAC"/>
</svg>
