<svg width="11" height="13" viewBox="0 0 11 13" fill="none" xmlns="http://www.w3.org/2000/svg">
<path d="M5.20512 0C3.91349 0.00149668 2.67518 0.526258 1.76186 1.45916C0.848541 2.39206 0.334794 3.65692 0.333328 4.97624C0.333328 9.23432 4.76223 12.4502 4.95101 12.5848C5.02548 12.6381 5.1142 12.6667 5.20512 12.6667C5.29605 12.6667 5.38476 12.6381 5.45923 12.5848C5.64801 12.4502 10.0769 9.23432 10.0769 4.97624C10.0755 3.65692 9.56171 2.39206 8.64838 1.45916C7.73506 0.526258 6.49675 0.00149668 5.20512 0ZM5.20512 3.1667C5.55551 3.1667 5.89802 3.27283 6.18935 3.47166C6.48068 3.6705 6.70775 3.95311 6.84183 4.28376C6.97592 4.61441 7.011 4.97825 6.94265 5.32926C6.87429 5.68028 6.70556 6.00271 6.45781 6.25578C6.21005 6.50885 5.89439 6.68119 5.55074 6.75101C5.20709 6.82083 4.85089 6.785 4.52718 6.64804C4.20347 6.51108 3.92679 6.27915 3.73212 5.98157C3.53746 5.68399 3.43356 5.33413 3.43356 4.97624C3.43356 4.49632 3.62021 4.03606 3.95244 3.6967C4.28467 3.35735 4.73528 3.1667 5.20512 3.1667Z" fill="#8393E7"/>
</svg>
