<svg width="11" height="13" viewBox="0 0 11 13" fill="none" xmlns="http://www.w3.org/2000/svg">
<path d="M5.20505 0C3.91342 0.00149668 2.67511 0.526258 1.76179 1.45916C0.848465 2.39206 0.334717 3.65692 0.333252 4.97624C0.333252 9.23432 4.76216 12.4502 4.95094 12.5848C5.02541 12.6381 5.11413 12.6667 5.20505 12.6667C5.29597 12.6667 5.38469 12.6381 5.45916 12.5848C5.64794 12.4502 10.0768 9.23432 10.0768 4.97624C10.0754 3.65692 9.56163 2.39206 8.64831 1.45916C7.73499 0.526258 6.49668 0.00149668 5.20505 0ZM5.20505 3.1667C5.55543 3.1667 5.89794 3.27283 6.18927 3.47166C6.48061 3.6705 6.70767 3.95311 6.84176 4.28376C6.97584 4.61441 7.01093 4.97825 6.94257 5.32926C6.87421 5.68028 6.70549 6.00271 6.45773 6.25578C6.20997 6.50885 5.89431 6.68119 5.55066 6.75101C5.20701 6.82083 4.85081 6.785 4.5271 6.64804C4.20339 6.51108 3.92671 6.27915 3.73205 5.98157C3.53739 5.68399 3.43349 5.33413 3.43349 4.97624C3.43349 4.49632 3.62013 4.03606 3.95236 3.6967C4.2846 3.35735 4.7352 3.1667 5.20505 3.1667Z" fill="#9FABEB"/>
</svg>
