<svg width="12" height="13" viewBox="0 0 12 13" fill="none" xmlns="http://www.w3.org/2000/svg">
<path fill-rule="evenodd" clip-rule="evenodd" d="M7.82001 4.69H11.5V4.68C11.78 4.68 12 4.46 12 4.18V0.5C12 0.22 11.78 0 11.5 0C11.22 0 11 0.22 11 0.5V2.69738C9.89626 1.04383 8.02286 0.0200195 6 0.0200195C2.69 0.0200195 0 2.71002 0 6.02002C0 9.33002 2.69 12.02 6 12.02V12.01C9.31 12.01 12 9.32002 12 6.01002C12 5.73002 11.78 5.51002 11.5 5.51002C11.22 5.51002 11 5.73002 11 6.01002C11 8.77002 8.76 11.01 6 11.01C3.24 11.01 1 8.77002 1 6.01002C1 3.25002 3.24 1.01002 6 1.01002C6.95793 1.01211 7.89527 1.28812 8.70146 1.8055C9.43242 2.2746 10.0279 2.92437 10.4315 3.69H7.82001C7.54001 3.69 7.32001 3.91 7.32001 4.19C7.32001 4.47 7.54001 4.69 7.82001 4.69Z" fill="white"/>
</svg>
