<svg width="20" height="20" viewBox="0 0 20 20" fill="none" xmlns="http://www.w3.org/2000/svg">
<path fill-rule="evenodd" clip-rule="evenodd" d="M1.60039 9.00039C1.60039 4.91348 4.91348 1.60039 9.00039 1.60039C13.0873 1.60039 16.4004 4.91348 16.4004 9.00039C16.4004 11.0065 15.6021 12.8262 14.3059 14.159C14.2779 14.1787 14.2512 14.2011 14.2261 14.2262C14.2011 14.2512 14.1787 14.2779 14.159 14.3059C12.8261 15.6021 11.0065 16.4004 9.00039 16.4004C4.91348 16.4004 1.60039 13.0873 1.60039 9.00039ZM14.6425 15.4911C13.1323 16.8049 11.1593 17.6004 9.00039 17.6004C4.25074 17.6004 0.400391 13.75 0.400391 9.00039C0.400391 4.25074 4.25074 0.400391 9.00039 0.400391C13.75 0.400391 17.6004 4.25074 17.6004 9.00039C17.6004 11.1593 16.8049 13.1324 15.491 14.6425L19.4246 18.5762C19.659 18.8105 19.659 19.1904 19.4246 19.4247C19.1903 19.659 18.8104 19.659 18.5761 19.4247L14.6425 15.4911Z" fill="#939393"/>
</svg>
