<svg width="15" height="15" viewBox="0 0 15 15" fill="none" xmlns="http://www.w3.org/2000/svg">
<g clip-path="url(#clip0_5_2)">
<path d="M14.5 0.499987L14.96 0.696987C14.9996 0.605068 15.0107 0.503384 14.9918 0.405091C14.973 0.306799 14.9251 0.216422 14.8543 0.145653C14.7836 0.0748852 14.6932 0.0269828 14.5949 0.00814441C14.4966 -0.010694 14.3949 0.000398505 14.303 0.0399867L14.5 0.499987ZM0.499986 6.49999L0.302986 6.03999C0.218189 6.07622 0.145064 6.1352 0.0916956 6.2104C0.0383274 6.2856 0.00679531 6.3741 0.000585763 6.4661C-0.00562379 6.55811 0.0137311 6.65004 0.0565104 6.73173C0.0992897 6.81342 0.163827 6.88169 0.242986 6.92899L0.499986 6.49999ZM8.49999 14.5L8.07099 14.757C8.11829 14.8361 8.18655 14.9007 8.26825 14.9435C8.34994 14.9862 8.44187 15.0056 8.53387 14.9994C8.62588 14.9932 8.71437 14.9616 8.78957 14.9083C8.86478 14.8549 8.92375 14.7818 8.95999 14.697L8.49999 14.5ZM14.303 0.0399867L0.302986 6.03999L0.696986 6.95999L14.697 0.959987L14.303 0.0399867ZM0.242986 6.92899L5.24299 9.92999L5.75699 9.07199L0.756986 6.07199L0.242986 6.92899ZM5.06999 9.75699L8.06999 14.757L8.92799 14.243L5.92799 9.24299L5.06999 9.75699ZM8.95899 14.697L14.959 0.696987L14.039 0.302987L8.03899 14.303L8.95899 14.697ZM14.146 0.146987L5.14599 9.14699L5.85399 9.85399L14.854 0.853987L14.146 0.146987Z" fill="white"/>
</g>
<defs>
<clipPath id="clip0_5_2">
<rect width="15" height="15" fill="white"/>
</clipPath>
</defs>
</svg>
