<svg width="14" height="14" viewBox="0 0 14 14" fill="none" xmlns="http://www.w3.org/2000/svg">
<path fill-rule="evenodd" clip-rule="evenodd" d="M7 0.333333C3.31813 0.333333 0.333328 3.31814 0.333328 7C0.333328 10.6819 3.31813 13.6667 7 13.6667C10.6819 13.6667 13.6667 10.6819 13.6667 7C13.6667 3.31814 10.6819 0.333333 7 0.333333ZM7.46511 3.27907C7.46511 3.15571 7.41611 3.03741 7.32888 2.95018C7.24166 2.86296 7.12335 2.81395 7 2.81395C6.87664 2.81395 6.75834 2.86296 6.67111 2.95018C6.58388 3.03741 6.53488 3.15571 6.53488 3.27907V7C6.53488 7.25674 6.74325 7.46512 7 7.46512H10.7209C10.8443 7.46512 10.9626 7.41611 11.0498 7.32889C11.137 7.24166 11.186 7.12336 11.186 7C11.186 6.87664 11.137 6.75834 11.0498 6.67111C10.9626 6.58389 10.8443 6.53488 10.7209 6.53488H7.46511V3.27907Z" fill="#8393E7"/>
</svg>
