<svg width="14" height="14" viewBox="0 0 14 14" fill="none" xmlns="http://www.w3.org/2000/svg">
<path fill-rule="evenodd" clip-rule="evenodd" d="M6.99992 0.333252C3.31806 0.333252 0.333252 3.31806 0.333252 6.99992C0.333252 10.6818 3.31806 13.6666 6.99992 13.6666C10.6818 13.6666 13.6666 10.6818 13.6666 6.99992C13.6666 3.31806 10.6818 0.333252 6.99992 0.333252ZM7.46504 3.27899C7.46504 3.15563 7.41603 3.03733 7.32881 2.9501C7.24158 2.86288 7.12328 2.81387 6.99992 2.81387C6.87656 2.81387 6.75826 2.86288 6.67103 2.9501C6.58381 3.03733 6.5348 3.15563 6.5348 3.27899V6.99992C6.5348 7.25666 6.74318 7.46504 6.99992 7.46504H10.7208C10.8442 7.46504 10.9625 7.41603 11.0497 7.32881C11.137 7.24158 11.186 7.12328 11.186 6.99992C11.186 6.87656 11.137 6.75826 11.0497 6.67103C10.9625 6.58381 10.8442 6.5348 10.7208 6.5348H7.46504V3.27899Z" fill="#9FABEB"/>
</svg>
