<svg width="40" height="40" viewBox="0 0 40 40" fill="none" xmlns="http://www.w3.org/2000/svg">
<circle cx="19.9998" cy="20" r="18.3333" fill="#DDDDDD"/>
<path d="M20.3196 20.3193C22.8339 20.3193 24.8705 18.2828 24.8705 15.7685C24.8705 13.2541 22.8339 11.2176 20.3196 11.2176C17.8052 11.2176 15.7687 13.2541 15.7687 15.7685C15.7687 18.2828 17.8052 20.3193 20.3196 20.3193ZM20.3196 22.5948C17.2818 22.5948 11.2178 24.1193 11.2178 27.1457V28.2834C11.2178 28.9092 11.7297 29.4211 12.3555 29.4211H28.2836C28.9094 29.4211 29.4213 28.9092 29.4213 28.2834V27.1457C29.4213 24.1193 23.3573 22.5948 20.3196 22.5948Z" fill="white"/>
</svg>
