<svg width="42" height="42" viewBox="0 0 42 42" fill="none" xmlns="http://www.w3.org/2000/svg">
<path fill-rule="evenodd" clip-rule="evenodd" d="M20.9999 3.2171C11.1787 3.2171 3.21697 11.1788 3.21697 21C3.21697 30.8213 11.1787 38.783 20.9999 38.783C30.8212 38.783 38.7829 30.8213 38.7829 21C38.7829 11.1788 30.8212 3.2171 20.9999 3.2171ZM0.333252 21C0.333252 9.58616 9.58603 0.333374 20.9999 0.333374C32.4138 0.333374 41.6666 9.58616 41.6666 21C41.6666 32.4139 32.4138 41.6667 20.9999 41.6667C9.58603 41.6667 0.333252 32.4139 0.333252 21ZM20.9999 11.8683C21.7962 11.8683 22.4418 12.5138 22.4418 13.3101V21C22.4418 21.7964 21.7962 22.4419 20.9999 22.4419C20.2036 22.4419 19.5581 21.7964 19.5581 21V13.3101C19.5581 12.5138 20.2036 11.8683 20.9999 11.8683ZM20.9999 26.7675C19.9382 26.7675 19.0774 27.6282 19.0774 28.69C19.0774 29.7517 19.9382 30.6124 20.9999 30.6124H21.0191C22.0809 30.6124 22.9416 29.7517 22.9416 28.69C22.9416 27.6282 22.0809 26.7675 21.0191 26.7675H20.9999Z" fill="#939393"/>
</svg>
