<svg version="1.1" id="Layer_1" xmlns="http://www.w3.org/2000/svg" xmlns:xlink="http://www.w3.org/1999/xlink" x="0px" y="0px"
	 width="100%" viewBox="0 0 294 138" enable-background="new 0 0 294 138" xml:space="preserve">
<path fill="#FFFFFF" opacity="1.000000" stroke="none" 
	d="
M173.000000,139.000000 
	C115.333344,139.000000 58.166679,139.000000 1.000015,139.000000 
	C1.000010,93.000015 1.000010,47.000023 1.000005,1.000028 
	C98.999977,1.000018 196.999954,1.000018 294.999939,1.000009 
	C294.999969,46.999969 294.999969,92.999939 295.000000,138.999954 
	C254.500000,139.000000 214.000000,139.000000 173.000000,139.000000 
M64.074265,102.857674 
	C65.072113,101.760849 66.496002,100.830940 67.001312,99.541145 
	C71.603050,87.795273 76.027023,75.979874 80.555084,64.204842 
	C81.136467,62.693001 82.015678,61.295696 83.379654,58.626835 
	C84.162781,62.091347 84.641884,63.988430 85.016823,65.905876 
	C87.371628,77.948486 89.650322,90.006508 92.118797,102.025620 
	C92.385704,103.325211 93.566772,105.263702 94.567245,105.428589 
	C97.393555,105.894379 100.346527,105.591499 103.701897,105.591499 
	C99.060883,81.489410 94.625687,58.216961 89.961159,34.990574 
	C89.744720,33.912846 87.534988,32.658340 86.150253,32.519913 
	C83.729752,32.277943 80.930420,31.459120 79.711884,35.292900 
	C77.704102,41.609787 75.137741,47.749832 72.786148,53.956585 
	C69.492821,62.648926 66.180519,71.334076 62.598022,80.754128 
	C61.511539,78.708733 60.762478,77.596428 60.296860,76.375992 
	C55.579376,64.010880 50.907600,51.628334 46.224224,39.250217 
	C43.381580,31.737137 43.382542,31.736773 35.026146,32.861488 
	C30.406046,56.846668 25.763115,80.950371 21.117710,105.066925 
	C31.858015,106.752319 31.858999,106.752510 33.769272,96.928612 
	C34.182037,94.805908 34.581650,92.680656 34.992847,90.557648 
	C37.067856,79.844330 39.144699,69.131363 41.470737,57.129101 
	C47.173008,72.044014 52.557068,85.551735 57.417397,99.245354 
	C58.625736,102.649757 60.378460,103.171455 64.074265,102.857674 
M170.286987,96.782867 
	C182.149673,84.157814 184.952591,69.633759 178.799438,53.573765 
	C173.326385,39.288818 157.484909,29.692032 143.248734,31.532198 
	C125.246445,33.859169 112.825279,46.743370 110.862381,65.125862 
	C109.148064,81.180412 117.155472,95.928680 131.807129,103.702591 
	C142.980972,109.631233 158.242050,107.051102 170.286987,96.782867 
M238.860428,44.688660 
	C238.860428,64.895065 238.860428,85.101463 238.860428,105.252228 
	C242.996902,105.252228 246.239929,105.252228 250.111786,105.252228 
	C250.111786,84.539696 250.111786,64.195587 250.111786,43.369385 
	C258.004242,43.369385 265.265045,43.369385 272.517029,43.369385 
	C272.517029,39.470013 272.517029,36.080647 272.517029,32.637993 
	C253.583603,32.637993 235.011963,32.637993 216.224945,32.637993 
	C216.224945,36.309349 216.224945,39.713989 216.224945,43.890984 
	C223.744476,43.890984 231.021637,43.890984 238.860428,44.688660 
M193.134689,68.499992 
	C193.134689,80.736969 193.134689,92.973946 193.134689,105.355820 
	C197.005508,105.355820 200.257263,105.355820 203.640015,105.355820 
	C203.640015,80.973366 203.640015,56.846310 203.640015,32.782883 
	C200.014923,32.782883 196.775986,32.782883 193.134766,32.782883 
	C193.134766,44.613609 193.134766,56.056797 193.134689,68.499992 
z"/>
<path fill="#686868" opacity="1.000000" stroke="none" 
	d="
M63.669228,102.861267 
	C60.378460,103.171455 58.625736,102.649757 57.417397,99.245354 
	C52.557068,85.551735 47.173008,72.044014 41.470737,57.129101 
	C39.144699,69.131363 37.067856,79.844330 34.992847,90.557648 
	C34.581650,92.680656 34.182037,94.805908 33.769272,96.928612 
	C31.858999,106.752510 31.858015,106.752319 21.117710,105.066925 
	C25.763115,80.950371 30.406046,56.846668 35.026146,32.861488 
	C43.382542,31.736773 43.381580,31.737137 46.224224,39.250217 
	C50.907600,51.628334 55.579376,64.010880 60.296860,76.375992 
	C60.762478,77.596428 61.511539,78.708733 62.598022,80.754128 
	C66.180519,71.334076 69.492821,62.648926 72.786148,53.956585 
	C75.137741,47.749832 77.704102,41.609787 79.711884,35.292900 
	C80.930420,31.459120 83.729752,32.277943 86.150253,32.519913 
	C87.534988,32.658340 89.744720,33.912846 89.961159,34.990574 
	C94.625687,58.216961 99.060883,81.489410 103.701897,105.591499 
	C100.346527,105.591499 97.393555,105.894379 94.567245,105.428589 
	C93.566772,105.263702 92.385704,103.325211 92.118797,102.025620 
	C89.650322,90.006508 87.371628,77.948486 85.016823,65.905876 
	C84.641884,63.988430 84.162781,62.091347 83.379654,58.626835 
	C82.015678,61.295696 81.136467,62.693001 80.555084,64.204842 
	C76.027023,75.979874 71.603050,87.795273 67.001312,99.541145 
	C66.496002,100.830940 65.072113,101.760849 63.669228,102.861267 
z"/>
<path fill="#686868" opacity="1.000000" stroke="none" 
	d="
M170.032257,97.032959 
	C158.242050,107.051102 142.980972,109.631233 131.807129,103.702591 
	C117.155472,95.928680 109.148064,81.180412 110.862381,65.125862 
	C112.825279,46.743370 125.246445,33.859169 143.248734,31.532198 
	C157.484909,29.692032 173.326385,39.288818 178.799438,53.573765 
	C184.952591,69.633759 182.149673,84.157814 170.032257,97.032959 
M164.882874,51.655727 
	C158.669846,43.229160 147.542343,40.098125 137.866440,43.848064 
	C125.211449,48.752560 118.109718,64.757599 122.879883,77.689774 
	C127.497818,90.209221 138.304474,97.437027 149.458313,95.466187 
	C168.915024,92.028259 177.712936,68.003281 164.882874,51.655727 
z"/>
<path fill="#6A6A6A" opacity="1.000000" stroke="none" 
	d="
M238.579620,44.289822 
	C231.021637,43.890984 223.744476,43.890984 216.224945,43.890984 
	C216.224945,39.713989 216.224945,36.309349 216.224945,32.637993 
	C235.011963,32.637993 253.583603,32.637993 272.517029,32.637993 
	C272.517029,36.080647 272.517029,39.470013 272.517029,43.369385 
	C265.265045,43.369385 258.004242,43.369385 250.111786,43.369385 
	C250.111786,64.195587 250.111786,84.539696 250.111786,105.252228 
	C246.239929,105.252228 242.996902,105.252228 238.860428,105.252228 
	C238.860428,85.101463 238.860428,64.895065 238.579620,44.289822 
z"/>
<path fill="#676767" opacity="1.000000" stroke="none" 
	d="
M193.134735,67.999985 
	C193.134766,56.056797 193.134766,44.613609 193.134766,32.782883 
	C196.775986,32.782883 200.014923,32.782883 203.640015,32.782883 
	C203.640015,56.846310 203.640015,80.973366 203.640015,105.355820 
	C200.257263,105.355820 197.005508,105.355820 193.134689,105.355820 
	C193.134689,92.973946 193.134689,80.736969 193.134735,67.999985 
z"/>
<path fill="#FEFEFE" opacity="1.000000" stroke="none" 
	d="
M165.079468,51.963730 
	C177.712936,68.003281 168.915024,92.028259 149.458313,95.466187 
	C138.304474,97.437027 127.497818,90.209221 122.879883,77.689774 
	C118.109718,64.757599 125.211449,48.752560 137.866440,43.848064 
	C147.542343,40.098125 158.669846,43.229160 165.079468,51.963730 
z"/>
</svg>